<?xml version="1.0" standalone="no"?>
<!DOCTYPE svg PUBLIC "-//W3C//DTD SVG 20010904//EN"
 "http://www.w3.org/TR/2001/REC-SVG-20010904/DTD/svg10.dtd">
<svg version="1.0" xmlns="http://www.w3.org/2000/svg"
 width="2481.000000pt" height="2481.000000pt" viewBox="0 0 2481.000000 2481.000000"
 preserveAspectRatio="xMidYMid meet">

<g transform="translate(0.000000,2481.000000) scale(0.100000,-0.100000)"
fill="#000000" stroke="none">
<path d="M11139 23075 c-48 -163 -150 -244 -326 -261 -77 -8 -100 -19 -82 -40
7 -9 33 -14 69 -14 91 0 181 -32 224 -81 42 -45 49 -62 71 -156 9 -37 23 -75
32 -85 23 -26 62 -23 67 5 2 12 9 48 16 79 26 129 120 208 249 208 36 0 72 4
80 9 27 17 -6 38 -69 44 -72 8 -125 29 -163 65 -44 41 -57 75 -67 170 -14 129
-16 132 -49 132 -28 0 -31 -4 -52 -75z"/>
<path d="M13596 22946 c-8 -113 -44 -263 -81 -336 -65 -128 -157 -186 -312
-197 -46 -3 -86 -10 -89 -15 -3 -5 -1 -22 5 -37 11 -24 20 -29 84 -39 183 -31
284 -131 322 -319 7 -37 16 -133 20 -213 4 -82 13 -159 21 -177 11 -28 18 -33
48 -33 33 0 36 2 41 38 66 396 178 565 420 627 32 8 79 15 102 15 62 0 106 49
70 78 -6 6 -53 15 -102 20 -114 13 -190 42 -249 93 -86 76 -116 147 -152 363
-32 191 -50 226 -117 226 -23 0 -24 -3 -31 -94z"/>
<path d="M12408 22907 c-37 -31 -48 -58 -48 -116 0 -42 4 -53 24 -66 41 -27
97 8 121 76 36 100 -25 167 -97 106z"/>
<path d="M9624 22512 c-30 -23 -44 -55 -44 -94 0 -42 8 -52 49 -66 46 -16 54
-15 82 8 50 40 59 54 59 87 0 70 -91 110 -146 65z"/>
<path d="M12336 22060 c-89 -27 -133 -140 -86 -218 22 -35 88 -72 130 -72 39
0 106 35 126 65 44 67 7 181 -70 216 -45 20 -57 21 -100 9z m73 -99 c32 -21
-18 -91 -55 -77 -19 7 -18 45 3 68 18 20 31 22 52 9z"/>
<path d="M15810 22041 c-67 -35 -99 -134 -65 -201 49 -95 226 -94 266 3 55
132 -79 264 -201 198z m108 -107 c4 -29 -45 -69 -64 -53 -17 14 -18 33 -3 60
14 28 63 22 67 -7z"/>
<path d="M8852 21858 c-16 -16 -15 -60 2 -83 16 -22 74 -25 87 -4 24 38 -7 99
-50 99 -15 0 -32 -5 -39 -12z"/>
<path d="M8007 21742 c-37 -41 -7 -102 49 -102 28 0 36 5 44 26 11 28 8 37
-23 72 -25 27 -48 28 -70 4z"/>
<path d="M14837 21682 c-36 -40 -9 -102 44 -102 52 0 66 54 24 95 -29 30 -46
31 -68 7z"/>
<path d="M12251 21505 c-85 -19 -229 -91 -323 -162 -102 -78 -286 -242 -627
-562 -402 -377 -456 -425 -549 -487 -104 -71 -195 -104 -284 -104 -81 0 -123
15 -238 86 -165 100 -161 99 -295 99 -114 0 -123 -2 -187 -32 -155 -73 -284
-189 -448 -403 -52 -68 -301 -382 -553 -697 -473 -591 -520 -643 -613 -673
-49 -16 -122 -8 -175 19 -24 13 -83 52 -130 87 -189 140 -288 181 -417 171
-151 -11 -263 -92 -478 -343 -139 -163 -231 -224 -309 -208 -74 15 -133 65
-249 214 -108 137 -202 227 -276 263 -58 29 -74 32 -150 32 -105 -1 -172 -28
-246 -102 -74 -74 -725 -1010 -929 -1336 -40 -65 -73 -131 -82 -165 -20 -79
-78 -185 -133 -246 -26 -28 -53 -62 -60 -75 -11 -22 -10 -26 16 -45 54 -38
102 -97 148 -184 55 -102 71 -123 117 -151 56 -34 109 -28 307 38 172 57 274
101 318 138 24 20 74 97 74 113 0 6 -24 10 -56 10 -139 0 -259 50 -489 205
-125 85 -143 100 -132 114 6 9 42 52 78 96 37 44 132 167 212 273 157 208 147
201 162 107 24 -146 154 -216 284 -153 30 14 91 68 175 155 161 165 200 188
311 181 66 -4 77 -8 95 -31 11 -14 46 -38 78 -54 48 -24 69 -28 137 -28 69 0
89 5 149 33 105 49 189 114 320 247 144 147 214 232 323 396 47 72 110 152
147 187 63 60 65 61 97 50 18 -6 72 -48 119 -93 102 -98 266 -222 335 -252 28
-12 118 -52 200 -89 217 -96 303 -128 515 -189 104 -30 240 -74 302 -98 62
-25 183 -72 268 -105 85 -33 194 -72 242 -86 85 -24 273 -50 290 -40 19 12 4
26 -69 63 -110 54 -189 81 -418 141 -293 76 -389 110 -600 215 -104 52 -246
119 -314 149 l-124 54 44 22 c24 13 63 36 86 52 66 45 292 296 426 473 119
157 854 1079 927 1163 31 35 40 40 49 28 7 -8 57 -33 112 -56 132 -56 198
-101 289 -196 41 -44 104 -109 138 -145 l64 -66 -48 -94 c-86 -173 -121 -218
-338 -439 -137 -140 -168 -177 -204 -247 -46 -89 -59 -155 -31 -161 11 -2 27
15 47 52 57 99 109 143 388 320 153 97 224 191 354 462 104 217 184 336 320
477 l109 112 1 -35 c1 -59 20 -123 46 -157 l25 -33 -50 -60 c-72 -86 -115
-152 -226 -345 -168 -292 -316 -501 -499 -705 -82 -91 -100 -120 -74 -120 19
0 148 104 219 177 130 134 214 252 384 543 142 243 174 290 263 383 72 73 78
77 119 77 55 0 89 17 158 80 68 61 116 78 167 57 27 -12 39 -25 52 -59 l17
-44 -89 -120 c-226 -303 -350 -501 -588 -936 -284 -520 -386 -677 -580 -892
-85 -95 -113 -131 -104 -140 22 -22 163 77 282 198 205 206 341 434 681 1136
36 74 89 173 117 220 50 81 212 313 262 374 l24 28 -7 -73 c-4 -41 -8 -141 -8
-222 l-1 -149 -83 -121 c-46 -67 -99 -143 -117 -169 -31 -44 -36 -69 -11 -54
6 4 55 61 111 126 55 66 103 120 107 120 5 1 11 -25 15 -57 17 -132 76 -240
152 -280 20 -11 55 -17 101 -17 125 -1 254 75 444 259 57 55 147 158 201 230
122 164 171 209 246 231 108 31 184 1 397 -158 135 -101 197 -133 272 -143 28
-3 86 -24 130 -45 44 -22 182 -73 307 -114 519 -170 741 -333 842 -615 l31
-86 -1 -230 c0 -181 -5 -259 -21 -365 -48 -307 -142 -682 -273 -1087 -44 -136
-94 -304 -111 -373 -18 -69 -35 -128 -39 -132 -3 -5 -52 -14 -109 -22 -57 -8
-106 -17 -108 -20 -15 -15 11 -34 54 -40 523 -74 1124 135 1592 553 122 108
215 223 374 461 182 274 253 366 349 455 68 63 188 155 202 155 3 0 6 -19 6
-42 0 -58 48 -156 100 -207 66 -63 120 -85 229 -89 116 -5 198 9 355 60 297
97 411 102 566 23 57 -29 137 -105 353 -337 126 -137 216 -205 314 -239 47
-17 76 -20 158 -17 111 5 159 19 352 107 150 68 222 85 343 78 52 -3 127 -13
166 -23 l71 -17 39 -64 c103 -170 249 -244 539 -273 208 -22 364 -63 493 -130
39 -20 72 -34 72 -30 0 9 -256 388 -371 550 -148 208 -184 249 -246 287 -91
54 -153 106 -255 211 -182 188 -372 447 -423 577 -41 104 -81 179 -148 280
-172 257 -358 424 -549 493 -63 23 -89 26 -188 26 -206 0 -289 -47 -626 -357
-319 -294 -654 -454 -1227 -587 -93 -22 -204 -55 -248 -74 -43 -18 -79 -30
-79 -26 0 13 -229 391 -325 535 -330 498 -634 796 -1004 984 -161 82 -271 120
-527 185 -268 68 -352 95 -469 151 -216 104 -346 245 -585 635 -126 205 -173
294 -245 461 -133 307 -235 469 -368 580 -162 137 -332 184 -516 144z m248
-247 l31 -13 3 -115 3 -115 77 -194 c44 -111 143 -323 231 -495 84 -166 163
-335 176 -376 13 -41 40 -161 61 -266 32 -163 62 -276 93 -346 14 -31 -8 -20
-130 68 -191 138 -300 182 -416 170 -123 -12 -204 -77 -360 -285 -169 -223
-325 -365 -468 -421 -144 -57 -233 39 -265 287 -7 51 -5 55 37 115 104 149
249 381 292 465 48 96 83 211 72 239 -6 15 -8 15 -27 -2 -37 -33 -125 -175
-189 -304 -70 -141 -176 -327 -192 -336 -8 -5 -9 55 -3 196 l7 204 98 130
c178 239 256 373 304 524 31 98 32 112 8 112 -12 0 -37 -38 -86 -132 -38 -73
-91 -168 -117 -210 -51 -82 -229 -328 -238 -328 -4 0 -13 13 -22 29 -9 15 -33
41 -54 57 -34 26 -46 29 -111 29 -59 0 -84 -5 -140 -31 -105 -48 -127 -53
-161 -39 -38 16 -62 67 -70 148 l-6 63 114 104 c114 105 239 226 639 615 390
381 546 483 716 470 34 -2 76 -10 93 -17z m5861 -2705 c0 -88 55 -174 220
-348 106 -112 147 -166 297 -394 154 -233 189 -279 299 -393 107 -112 212
-244 230 -292 4 -11 -5 -11 -53 -4 -68 12 -270 4 -328 -12 -22 -6 -105 -42
-185 -81 -80 -38 -175 -76 -212 -85 -63 -16 -73 -16 -135 0 -125 30 -203 93
-435 347 -187 205 -340 289 -528 289 -85 0 -158 -18 -373 -92 -210 -71 -300
-83 -403 -53 -120 34 -190 157 -153 265 16 45 114 90 402 185 256 85 373 133
580 237 181 90 254 135 440 269 137 99 291 189 325 189 6 0 12 -12 12 -27z
m-12520 -259 c71 -106 141 -242 178 -344 l20 -56 -67 0 c-120 -2 -214 -66
-359 -246 -68 -85 -121 -126 -174 -134 -64 -11 -116 57 -139 183 l-10 53 233
324 c128 179 236 325 240 325 4 1 39 -47 78 -105z"/>
<path d="M9324 21383 c-44 -200 -137 -287 -340 -315 -67 -10 -89 -17 -89 -28
0 -11 18 -17 75 -22 85 -9 162 -31 202 -59 39 -28 66 -77 87 -161 23 -94 34
-114 66 -120 31 -6 34 -3 50 77 33 157 107 222 267 233 43 2 78 8 78 12 0 15
-27 28 -75 35 -81 12 -152 43 -184 82 -33 40 -47 87 -57 188 -7 85 -17 105
-49 105 -19 0 -26 -7 -31 -27z"/>
<path d="M16051 21363 c-48 -192 -149 -275 -363 -298 -46 -5 -58 -10 -58 -24
0 -14 16 -19 94 -28 170 -20 229 -69 267 -223 24 -96 41 -122 78 -118 23 3 27
9 33 50 24 175 103 252 269 265 43 3 79 9 79 12 -1 18 -22 28 -84 38 -155 26
-212 88 -226 245 -10 116 -15 128 -50 128 -25 0 -29 -5 -39 -47z"/>
<path d="M10875 21375 c-21 -20 -25 -34 -25 -80 0 -49 4 -60 29 -86 68 -68
161 -8 161 105 0 36 -5 48 -26 65 -39 31 -107 29 -139 -4z"/>
<path d="M7931 21153 c-18 -17 -33 -43 -37 -65 -5 -32 -2 -41 22 -64 39 -35
97 -29 137 16 79 88 -35 194 -122 113z"/>
<path d="M14096 20677 c-46 -28 -65 -60 -66 -105 0 -70 48 -122 113 -122 117
0 201 137 134 216 -20 23 -34 28 -83 31 -49 3 -66 0 -98 -20z"/>
<path d="M6993 20658 c-6 -7 -16 -49 -23 -93 -28 -179 -92 -338 -171 -429 -75
-85 -188 -137 -329 -153 -69 -7 -75 -10 -84 -35 -14 -39 6 -58 63 -58 67 0
171 -25 228 -53 51 -27 121 -95 146 -143 27 -54 46 -129 71 -271 27 -160 46
-203 94 -217 18 -5 34 -7 37 -4 2 2 9 49 15 104 29 267 106 426 236 490 44 21
74 28 150 32 52 3 97 9 100 14 3 5 0 22 -6 38 -9 23 -21 31 -49 35 -123 20
-192 49 -251 106 -80 78 -116 188 -125 384 -9 186 -14 224 -36 246 -22 22 -52
25 -66 7z"/>
<path d="M17223 20655 c-32 -22 -63 -78 -63 -112 0 -60 61 -81 149 -53 65 22
81 40 81 92 0 55 -37 88 -99 88 -26 0 -56 -7 -68 -15z"/>
<path d="M8323 20230 c-77 -34 -109 -117 -75 -193 25 -56 67 -81 138 -81 59 0
95 19 125 67 42 67 2 180 -77 213 -44 18 -60 17 -111 -6z m96 -94 c25 -30 -35
-90 -65 -65 -18 15 -18 29 2 57 17 25 46 29 63 8z"/>
<path d="M15302 20108 c-19 -19 -14 -66 8 -88 38 -38 90 -20 90 30 0 51 -66
90 -98 58z"/>
<path d="M16461 20106 c-19 -23 -9 -67 20 -88 56 -42 105 20 63 80 -18 25 -65
30 -83 8z"/>
<path d="M17096 19428 c-31 -149 -42 -192 -63 -246 -49 -122 -157 -207 -279
-219 -75 -7 -96 -18 -92 -46 3 -20 11 -23 78 -29 133 -14 221 -75 256 -180 8
-26 24 -95 34 -153 21 -118 38 -155 74 -155 22 0 24 6 35 89 31 240 106 340
266 357 86 8 87 9 73 39 -8 18 -19 25 -39 25 -51 0 -139 40 -180 82 -54 56
-78 138 -85 292 -7 128 -19 166 -54 166 -12 0 -21 -8 -24 -22z"/>
<path d="M18119 19421 c-22 -23 -29 -39 -29 -69 0 -51 25 -74 89 -80 43 -4 53
-1 75 21 38 39 35 81 -10 123 -46 44 -84 45 -125 5z"/>
<path d="M6200 19235 c-21 -55 27 -107 78 -83 55 27 29 108 -34 108 -28 0 -36
-5 -44 -25z"/>
<path d="M9335 19217 c-163 -88 -478 -465 -655 -784 -33 -59 -60 -111 -60
-115 0 -29 39 7 113 105 156 205 299 370 487 562 200 203 219 227 199 251 -15
18 -14 19 -84 -19z"/>
<path d="M16021 18983 c-16 -16 -32 -43 -35 -61 -5 -28 -1 -39 25 -64 26 -26
35 -30 67 -25 76 13 120 109 72 157 -31 31 -92 27 -129 -7z"/>
<path d="M9279 18840 c-19 -11 -189 -234 -189 -248 0 -34 32 -15 122 74 102
101 134 145 124 170 -6 16 -33 18 -57 4z"/>
<path d="M12582 18678 c-44 -48 -162 -342 -144 -360 10 -10 112 141 163 239
51 100 39 182 -19 121z"/>
<path d="M9297 18538 c-60 -95 -70 -116 -64 -132 12 -30 36 -16 92 56 61 78
71 120 28 126 -18 3 -30 -8 -56 -50z"/>
<path d="M12236 18480 c-20 -22 -88 -118 -151 -213 -62 -95 -164 -234 -224
-310 -61 -75 -111 -142 -111 -147 0 -29 40 2 136 108 199 217 350 421 393 530
12 29 21 57 21 62 0 22 -30 8 -64 -30z"/>
<path d="M10933 18296 c-67 -75 -353 -574 -353 -616 0 -5 6 -10 13 -10 26 0
353 466 402 573 50 109 15 139 -62 53z"/>
<path d="M13956 18198 c-16 -59 -75 -205 -104 -258 -58 -107 -165 -257 -292
-410 -318 -384 -478 -623 -654 -977 -100 -200 -102 -206 -81 -227 37 -37 50
-23 138 159 172 352 320 575 612 926 72 86 161 199 198 251 117 162 193 341
212 492 6 48 5 56 -9 56 -9 0 -18 -6 -20 -12z"/>
<path d="M12272 18103 c-44 -47 -400 -569 -506 -743 -42 -68 -76 -132 -76
-142 0 -57 71 24 287 327 59 83 150 207 203 277 102 135 159 234 163 283 3 45
-27 44 -71 -2z"/>
<path d="M7505 18061 c-9 -16 36 -70 182 -211 223 -219 327 -294 683 -495 257
-145 424 -227 560 -278 120 -45 154 -49 158 -22 3 23 -44 48 -290 154 -76 32
-194 91 -262 131 -118 69 -640 447 -881 636 -112 89 -138 104 -150 85z"/>
<path d="M12511 18033 c-69 -83 -117 -231 -128 -390 -5 -77 -4 -93 8 -93 10 0
28 40 53 118 21 64 59 162 83 216 48 108 60 178 32 184 -10 2 -30 -13 -48 -35z"/>
<path d="M13435 17708 c-22 -11 -77 -58 -122 -104 -247 -252 -475 -621 -581
-940 -42 -126 -45 -144 -29 -144 8 0 35 46 63 107 158 345 341 620 592 887
104 110 159 187 147 206 -9 14 -25 12 -70 -12z"/>
<path d="M8542 17633 c5 -31 414 -228 664 -321 121 -45 226 -82 232 -82 43 0
-15 39 -196 132 -198 102 -380 182 -580 254 -106 39 -125 41 -120 17z"/>
<path d="M7860 17335 c0 -24 117 -131 220 -200 127 -85 218 -127 267 -123 86
7 38 69 -91 119 -90 34 -205 97 -312 170 -77 53 -84 56 -84 34z"/>
<path d="M13660 17221 c-28 -40 -45 -82 -84 -214 -104 -343 -107 -362 -65
-355 23 3 27 12 140 301 73 187 93 272 68 288 -24 15 -37 10 -59 -20z"/>
<path d="M6032 17107 c-39 -41 -53 -96 -63 -235 -15 -211 -45 -328 -125 -483
-53 -102 -131 -200 -211 -263 -64 -49 -97 -99 -108 -158 -6 -31 -3 -41 18 -62
38 -38 96 -42 265 -17 81 11 150 21 155 21 14 0 7 -116 -13 -199 -57 -239
-214 -447 -406 -541 -72 -35 -90 -49 -115 -88 -52 -82 -32 -148 52 -172 91
-26 304 1 387 50 19 12 37 19 39 16 9 -9 -26 -238 -52 -337 -93 -366 -281
-581 -535 -615 -75 -10 -102 -36 -108 -106 -5 -66 16 -115 54 -124 41 -10 171
3 254 26 98 27 239 97 319 157 35 26 73 54 83 62 20 15 20 8 17 -570 -2 -572
-2 -585 19 -649 22 -68 66 -125 110 -141 13 -5 45 -9 71 -9 60 0 106 29 135
85 26 50 27 125 7 780 -8 270 -10 469 -4 482 l8 23 48 -34 c26 -19 98 -59 160
-89 257 -126 466 -169 512 -104 21 30 19 61 -11 127 -23 52 -31 59 -87 86
-264 125 -498 387 -616 689 -39 100 -76 224 -68 231 2 2 44 -14 93 -37 131
-60 289 -111 365 -117 59 -4 69 -2 89 18 18 18 21 28 15 58 -14 75 -49 124
-122 171 -146 95 -303 287 -383 469 -49 109 -91 253 -93 314 -4 89 36 99 193
53 103 -30 160 -29 204 6 20 15 26 30 26 58 0 41 -27 85 -177 290 -106 144
-170 261 -209 381 -24 74 -28 107 -33 260 -6 175 -11 200 -49 243 -22 25 -83
23 -110 -6z"/>
<path d="M16817 17013 c-279 -218 -517 -414 -540 -445 -44 -59 -58 -94 -43
-107 10 -8 29 -3 77 21 53 26 115 82 357 316 261 254 314 312 283 312 -5 0
-65 -44 -134 -97z"/>
<path d="M16233 16952 c-154 -115 -220 -173 -551 -490 -262 -250 -369 -340
-512 -435 -184 -121 -364 -200 -540 -237 -65 -13 -86 -21 -88 -35 -4 -16 2
-17 63 -10 301 32 626 188 942 453 112 94 789 775 793 797 3 26 -34 11 -107
-43z"/>
<path d="M17009 16957 c-38 -25 -251 -296 -246 -312 10 -28 44 -4 164 117 126
128 153 167 139 203 -7 20 -17 19 -57 -8z"/>
<path d="M8585 16930 c-8 -13 101 -63 197 -90 106 -29 168 -26 168 9 0 27 -40
40 -202 67 -173 28 -155 27 -163 14z"/>
<path d="M17904 16815 c-41 -41 -55 -91 -65 -229 -16 -220 -63 -374 -159 -520
-52 -80 -138 -171 -199 -211 -38 -26 -76 -87 -87 -141 -4 -21 0 -37 14 -54 18
-22 30 -25 100 -28 45 -2 126 3 182 12 55 9 113 16 127 16 l26 0 -5 -78 c-7
-97 -54 -242 -110 -337 -60 -103 -203 -241 -293 -283 -38 -18 -77 -37 -85 -41
-8 -4 -30 -27 -47 -50 -80 -103 -16 -179 149 -181 88 0 211 24 273 55 27 13
51 22 53 20 8 -8 -22 -196 -48 -300 -95 -380 -280 -583 -563 -620 -40 -5 -51
-12 -68 -38 -34 -57 -22 -142 26 -173 24 -16 37 -16 128 -6 175 21 345 91 493
203 l66 50 -3 -558 c-3 -585 -2 -599 42 -684 67 -133 252 -122 305 17 16 42
16 70 6 377 -22 603 -25 762 -18 799 l7 36 52 -35 c148 -100 421 -203 558
-211 78 -4 88 -3 108 17 27 27 26 64 -3 128 -23 49 -30 55 -113 97 -239 120
-422 307 -548 557 -50 102 -124 304 -113 314 2 2 58 -18 123 -46 275 -116 445
-132 445 -42 0 11 -13 46 -30 79 -26 51 -40 65 -102 104 -209 130 -385 388
-455 664 -42 168 -17 187 171 137 89 -23 116 -27 150 -19 65 15 86 33 86 76 0
42 -30 92 -141 232 -214 273 -279 430 -279 679 0 112 -4 143 -19 178 -31 67
-91 84 -137 38z"/>
<path d="M6800 16347 c0 -9 8 -18 18 -21 9 -3 235 -44 502 -90 808 -141 1010
-183 1230 -256 253 -83 384 -160 620 -366 186 -162 261 -218 438 -327 247
-152 402 -228 637 -312 66 -24 113 -46 105 -49 -8 -2 -82 -24 -165 -47 -360
-100 -668 -224 -1087 -435 -205 -104 -298 -165 -372 -245 -87 -93 -88 -136 -5
-125 60 8 73 14 405 174 832 403 1557 599 2404 653 223 14 627 7 860 -16 180
-17 485 -61 501 -71 6 -4 17 -22 25 -40 19 -45 3 -76 -63 -125 -102 -77 -191
-109 -481 -174 -295 -67 -810 -213 -937 -267 -154 -64 -230 -126 -368 -294
-86 -105 -175 -187 -240 -222 l-52 -27 -795 -5 -795 -5 -47 -27 c-25 -16 -59
-44 -75 -63 -16 -19 -163 -329 -328 -689 l-299 -654 -58 53 c-64 57 -171 116
-258 142 -72 21 -686 31 -773 13 -70 -14 -128 -56 -164 -117 l-28 -48 -3 -250
c-3 -211 -1 -260 14 -313 32 -120 118 -218 241 -275 45 -21 64 -22 348 -27
l300 -5 -65 -34 c-423 -218 -772 -567 -985 -983 -59 -113 -136 -303 -155 -378
-10 -42 -16 -48 -76 -79 -68 -35 -132 -99 -165 -163 -48 -93 -49 -115 -49
-753 l0 -600 -35 -19 c-54 -29 -123 -109 -158 -184 -32 -67 -32 -68 -35 -252
l-4 -185 -60 -64 c-113 -120 -195 -270 -235 -428 -17 -63 -18 -159 -18 -1313
l0 -1245 23 -85 c44 -170 135 -323 266 -449 36 -34 66 -67 66 -73 0 -17 123
-139 185 -183 118 -84 243 -135 380 -155 44 -7 258 -15 475 -19 354 -7 400
-10 444 -27 52 -20 92 -63 83 -87 -3 -9 -45 -22 -114 -36 -492 -102 -577 -127
-589 -175 -9 -39 -1 -50 67 -96 77 -53 202 -112 294 -138 289 -85 772 -95
1195 -27 232 38 346 37 575 -4 249 -44 327 -49 1185 -68 1028 -23 1351 -9
2140 93 240 31 252 31 321 5 110 -42 179 -103 179 -160 0 -33 -65 -96 -138
-134 -163 -84 -380 -131 -678 -146 -116 -6 -305 -20 -420 -32 -820 -79 -863
-81 -1759 -77 -673 3 -745 5 -920 25 -104 12 -311 29 -460 38 -458 26 -617 17
-727 -42 -65 -34 -88 -74 -67 -111 41 -73 106 -85 394 -76 261 8 467 -7 529
-38 48 -24 213 -62 371 -84 86 -12 200 -17 405 -18 266 -2 289 -3 352 -24 122
-41 150 -94 75 -141 -51 -31 -201 -78 -324 -99 -127 -23 -167 -39 -171 -67 -7
-52 106 -150 225 -195 152 -57 312 -72 743 -68 313 2 359 0 490 -19 395 -60
882 -72 1605 -39 204 9 562 20 797 25 234 5 430 11 435 14 4 3 91 12 193 21
326 29 425 56 520 143 73 65 43 123 -85 162 -108 34 -210 40 -765 46 -792 9
-1177 -14 -1548 -91 -400 -84 -644 -114 -765 -94 -131 21 -226 72 -253 137
-26 61 17 118 131 175 147 74 358 119 720 153 94 9 267 27 385 41 214 25 220
25 1080 24 1076 0 1699 14 2355 55 1195 75 1825 231 1825 451 l0 27 -122 -6
c-75 -3 -184 -17 -278 -35 -85 -17 -211 -37 -280 -46 -135 -17 -692 -66 -747
-66 l-34 0 39 47 c85 102 202 302 202 344 0 25 -43 69 -68 69 -11 0 -46 -20
-77 -45 -32 -25 -60 -43 -62 -42 -2 2 15 54 37 116 22 61 40 122 40 135 0 33
-35 60 -77 60 -31 0 -43 -8 -85 -54 -45 -50 -94 -119 -156 -220 l-22 -35 0 60
c0 33 -3 77 -6 98 -5 29 -3 37 9 37 32 0 119 34 127 51 19 35 -14 44 -159 44
-158 0 -166 3 -232 90 -29 38 -57 62 -95 81 -52 25 -58 26 -191 22 -99 -4
-151 -10 -183 -23 -63 -24 -328 -36 -419 -18 -36 7 -86 12 -111 13 -69 1 -76
11 -32 52 20 19 58 49 84 67 l48 32 222 -11 c288 -13 961 -13 1198 0 102 6
343 22 535 37 223 16 441 27 600 28 234 1 253 2 291 22 23 12 48 33 57 46 12
18 28 26 67 31 73 10 195 55 286 107 55 31 110 74 180 144 109 108 165 192
214 317 62 160 60 110 60 1438 0 1064 -2 1220 -16 1288 -33 164 -117 323 -236
448 l-68 71 0 170 c0 122 -4 184 -15 220 -23 76 -86 163 -155 214 l-60 44 0
605 c0 666 0 665 -61 762 -29 45 -91 108 -137 138 -18 12 -28 38 -47 120 -114
497 -402 919 -825 1212 l-92 63 134 5 c123 5 138 8 200 37 88 41 160 113 201
201 l32 67 3 265 c2 166 0 278 -7 300 -14 48 -73 115 -125 143 -39 21 -53 22
-366 25 -215 2 -350 0 -400 -8 -102 -16 -200 -59 -289 -125 -41 -31 -77 -53
-81 -48 -3 4 -150 314 -326 688 -337 719 -341 727 -429 770 -39 19 -72 20
-1285 25 l-1245 5 -165 58 c-192 68 -315 125 -349 160 -37 40 -40 105 -6 162
49 85 201 180 389 245 65 23 137 50 160 62 126 64 240 168 323 295 l53 81 73
-19 c373 -103 660 -213 1304 -503 164 -74 292 -126 305 -124 16 2 24 11 26 30
3 22 -9 35 -80 91 -409 319 -1097 614 -1781 763 -67 15 -125 30 -130 33 -9 8
313 81 488 110 440 74 923 112 1444 115 306 1 335 2 345 19 21 33 -4 51 -80
58 -321 30 -770 34 -1084 8 -390 -32 -1036 -155 -1259 -240 l-81 -31 -153 21
c-312 42 -373 46 -807 46 -338 0 -457 -4 -580 -18 -206 -23 -409 -54 -552 -82
l-118 -23 -107 28 c-167 44 -336 106 -478 174 -215 103 -348 193 -555 376
-329 290 -424 362 -589 445 -195 98 -404 152 -861 224 -403 63 -719 101 -960
116 -52 3 -128 8 -167 11 -61 5 -73 3 -73 -9z m8553 -2851 c18 -7 40 -22 49
-33 17 -18 898 -1885 898 -1901 0 -5 -13 -7 -30 -4 -31 4 -58 55 -775 1467
-76 149 -148 285 -161 302 -14 18 -46 45 -72 60 l-47 28 -2920 0 -2920 0 -46
-27 c-57 -34 -95 -77 -124 -143 -13 -27 -211 -430 -442 -895 -417 -841 -419
-846 -455 -857 l-36 -11 18 42 c76 176 884 1934 893 1943 7 6 26 19 42 27 27
14 342 16 3063 16 2537 0 3038 -2 3065 -14z m-149 -263 c15 -14 35 -45 45 -68
10 -23 192 -382 405 -798 212 -416 386 -758 386 -761 0 -3 -1644 -7 -3652 -8
-3467 -3 -3658 -4 -3742 -21 -48 -10 -90 -16 -93 -14 -2 3 60 132 138 288 78
156 261 525 406 819 145 294 275 547 289 563 l26 27 2882 0 2883 0 27 -27z
m-7149 -1017 c28 -7 70 -23 94 -36 54 -27 141 -108 165 -152 l18 -33 -89 -195
-90 -195 -319 0 c-307 0 -320 1 -359 22 -50 27 -80 58 -100 105 -20 48 -23
466 -3 486 18 18 615 17 683 -2z m9189 -82 c13 -13 16 -46 16 -210 0 -217 -8
-265 -52 -318 -61 -74 -70 -76 -411 -76 l-304 0 -97 204 c-53 113 -96 209 -96
215 0 5 22 34 49 64 52 56 141 110 207 126 22 5 182 9 356 10 275 1 319 -1
332 -15z m-1243 -744 c640 -65 1181 -437 1460 -1003 53 -108 132 -326 141
-387 l3 -25 -5267 -3 c-4582 -2 -5268 0 -5268 12 0 29 54 163 110 276 318 635
940 1062 1640 1128 140 14 7051 15 7181 2z m-8401 -1624 c0 -3 -43 -114 -96
-248 -52 -134 -109 -278 -126 -320 l-29 -78 -290 0 -289 0 0 243 c0 268 5 292
68 350 54 51 88 56 440 56 177 1 322 -1 322 -3z m1042 -68 c4 -72 9 -84 281
-651 152 -318 277 -582 277 -587 0 -6 -241 -10 -645 -10 l-644 0 -170 244
c-223 319 -216 307 -216 386 0 67 8 90 222 628 l25 62 433 0 433 0 4 -72z
m7169 51 c6 -12 9 -36 6 -53 -9 -52 -554 -1178 -582 -1203 -13 -12 -44 -24
-67 -28 -24 -3 -1329 -4 -2900 -3 -2856 3 -2857 3 -2884 23 -20 15 -101 174
-311 613 -155 326 -283 602 -283 613 0 11 5 29 10 40 11 19 61 19 3505 19
l3494 0 12 -21z m1074 4 c3 -10 58 -150 122 -312 63 -161 118 -311 120 -332
10 -74 -13 -119 -202 -391 l-182 -263 -667 -3 c-366 -1 -666 1 -666 4 0 4 113
244 252 533 138 289 265 555 281 590 22 45 32 83 34 125 1 34 2 62 3 64 0 1
202 2 449 2 418 0 449 -1 456 -17z m860 -18 c32 -20 56 -45 72 -74 22 -43 23
-52 23 -293 l0 -248 -269 0 c-206 0 -270 3 -274 13 -50 124 -247 628 -247 632
0 3 145 5 323 3 l324 -3 48 -30z m-10209 -1020 c96 -137 174 -253 174 -257 0
-4 -211 -8 -470 -8 l-470 0 0 260 0 260 296 -2 297 -3 173 -250z m10304 -5 l0
-260 -456 0 -455 0 19 28 c10 15 72 104 137 197 65 94 138 198 162 233 l44 62
275 0 274 0 0 -260z m110 -484 c98 -52 123 -103 128 -263 l4 -123 -5771 0
-5771 0 0 122 c0 103 3 128 21 165 26 53 75 92 137 109 38 10 1162 12 5632 11
5431 -2 5586 -3 5620 -21z m127 -823 c-6 -241 -16 -313 -62 -449 -116 -346
-392 -623 -735 -738 -167 -55 -218 -61 -585 -61 l-340 0 -5 395 -5 395 -31 65
c-37 78 -104 146 -182 186 l-57 29 -535 0 -535 0 -66 -32 c-81 -40 -140 -102
-182 -191 l-32 -67 -3 -392 -3 -393 -2389 0 -2389 0 -3 393 -3 392 -32 67
c-42 89 -101 151 -182 191 l-66 32 -535 0 -535 0 -59 -30 c-77 -39 -137 -98
-178 -176 l-33 -64 -5 -400 -5 -400 -300 -3 c-421 -4 -555 12 -752 92 -181 74
-365 218 -486 381 -77 102 -158 272 -193 400 -25 93 -27 117 -32 353 l-4 252
5772 0 5773 0 -6 -227z m252 -44 c70 -156 66 -73 66 -1404 l0 -1200 -23 -80
c-60 -208 -190 -365 -377 -456 -146 -70 -159 -72 -559 -77 -387 -4 -472 2
-587 42 -243 85 -429 309 -469 566 -7 52 -10 249 -8 635 l3 560 58 3 57 3 0
-553 c1 -304 5 -611 10 -682 7 -113 12 -135 39 -191 73 -149 273 -255 565
-302 130 -20 402 -15 459 10 42 18 55 41 39 67 -9 15 -7 21 13 34 32 21 37 21
98 -14 30 -17 68 -30 87 -30 68 0 105 74 58 116 -38 33 -151 102 -180 109 -29
7 -90 -16 -170 -65 -27 -17 -54 -30 -62 -30 -15 0 -84 83 -123 149 -23 39 -24
43 -7 36 57 -25 86 -18 208 49 65 36 125 66 133 66 8 0 38 -16 68 -35 88 -56
172 -95 205 -95 19 0 78 27 157 71 172 97 193 113 193 150 0 37 -39 79 -73 79
-14 0 -82 -32 -153 -72 l-128 -71 -30 18 c-255 148 -230 146 -428 33 l-87 -50
-85 46 c-76 42 -87 51 -95 84 -17 61 -40 177 -36 180 2 2 39 -18 84 -44 122
-71 142 -70 276 10 61 36 118 66 127 66 10 0 47 -18 82 -40 101 -61 163 -90
195 -90 28 0 293 141 334 177 40 37 0 123 -57 123 -14 0 -82 -31 -150 -70 -68
-38 -126 -70 -128 -70 -3 0 -57 30 -119 66 -148 85 -166 85 -321 -6 l-107 -62
-117 63 c-63 35 -119 71 -124 79 -9 18 -20 190 -12 190 3 0 50 -25 104 -56
143 -82 153 -82 296 1 64 38 122 68 127 68 6 0 40 -18 77 -41 103 -63 164 -92
197 -92 28 0 293 141 334 177 40 37 0 123 -58 123 -14 0 -81 -31 -149 -70 -68
-38 -126 -70 -129 -70 -2 0 -56 30 -118 66 -148 85 -166 85 -321 -6 l-107 -62
-130 72 -131 72 1 77 c1 121 -2 120 114 53 137 -78 155 -78 300 7 61 35 113
65 116 67 3 2 38 -17 76 -41 105 -65 169 -95 201 -95 28 0 293 141 335 178 40
36 0 122 -58 122 -14 0 -81 -31 -149 -70 -68 -38 -126 -70 -129 -70 -2 0 -55
29 -118 65 -154 88 -161 88 -316 -2 l-113 -65 -95 53 c-90 50 -113 69 -81 69
8 0 54 12 102 26 99 28 241 92 327 147 l57 37 56 -36 c76 -49 154 -84 185 -84
25 0 293 144 332 178 41 36 2 122 -55 122 -19 0 -76 -26 -155 -71 l-126 -71
-41 23 c-23 12 -46 26 -51 30 -7 5 20 40 70 92 68 72 99 95 210 157 72 40 138
79 148 88 23 21 22 64 -5 97 -19 24 -26 27 -63 22 l-43 -4 23 51 c12 28 31 78
41 111 10 33 29 72 42 87 20 21 23 33 18 60 -8 40 -8 19 0 221 4 92 10 167 14
167 4 0 22 -32 39 -71z m-11999 -79 c1 -41 5 -98 9 -126 6 -42 4 -56 -11 -74
-10 -12 -18 -33 -18 -47 0 -23 40 -73 59 -73 5 0 13 -15 16 -32 4 -18 23 -71
41 -117 19 -47 32 -86 31 -88 -2 -1 -17 3 -35 9 -64 24 -127 -29 -106 -89 8
-22 41 -46 170 -118 136 -77 170 -101 227 -161 l67 -72 -55 -31 c-30 -17 -57
-31 -59 -31 -2 0 -60 31 -128 70 -70 40 -135 70 -151 70 -54 0 -92 -63 -67
-110 14 -27 311 -190 346 -190 26 0 84 28 210 100 l40 23 45 -30 c99 -68 372
-183 435 -183 27 0 8 -15 -92 -72 l-89 -50 -35 19 c-19 11 -72 41 -118 67
-114 68 -131 66 -277 -18 -63 -36 -117 -66 -119 -66 -2 0 -60 32 -129 70 -69
39 -137 70 -152 70 -31 0 -75 -41 -75 -70 0 -12 4 -30 10 -40 14 -26 310 -190
344 -190 30 0 113 40 207 99 52 33 66 38 83 29 12 -6 64 -36 116 -67 129 -76
150 -76 287 2 55 31 104 57 107 57 3 0 6 -42 6 -94 l0 -94 -127 -71 c-69 -39
-129 -71 -132 -71 -3 0 -55 30 -116 65 -147 87 -161 87 -312 0 -62 -36 -115
-65 -117 -65 -3 0 -62 32 -130 70 -68 39 -135 70 -150 70 -34 0 -76 -41 -76
-73 0 -14 8 -34 18 -45 26 -31 305 -182 336 -182 29 0 120 43 204 96 29 19 60
34 69 34 9 0 63 -27 119 -60 56 -34 117 -63 136 -66 40 -7 83 9 189 72 42 24
79 44 83 44 12 0 -5 -184 -18 -197 -11 -12 -224 -133 -234 -133 -2 0 -55 29
-117 65 -91 53 -120 65 -156 65 -36 0 -64 -12 -156 -65 -62 -36 -115 -65 -118
-65 -3 0 -61 32 -129 70 -68 38 -136 70 -150 70 -34 0 -76 -41 -76 -73 0 -14
8 -34 18 -45 28 -33 303 -182 336 -182 30 0 100 33 201 94 33 20 67 36 76 36
8 0 64 -29 124 -65 71 -42 120 -65 140 -65 33 0 106 32 174 74 24 15 45 26 47
23 3 -2 -5 -50 -17 -106 -24 -114 -19 -107 -146 -176 l-52 -28 -114 67 c-153
88 -165 88 -312 1 -61 -35 -114 -65 -118 -65 -4 0 -63 31 -131 70 -68 39 -136
70 -150 70 -34 0 -76 -41 -76 -73 0 -14 8 -34 18 -45 27 -32 301 -182 332
-182 37 0 81 19 181 80 46 27 90 50 97 50 7 0 66 -29 131 -65 116 -65 154 -75
193 -54 11 6 22 9 24 6 6 -6 -89 -148 -115 -171 -21 -19 -22 -19 -121 32 -56
29 -109 52 -119 52 -24 0 -180 -94 -208 -126 -28 -31 -29 -54 -2 -88 30 -38
77 -35 149 9 65 39 76 41 108 20 18 -14 20 -19 9 -35 -17 -28 0 -51 49 -69 63
-23 329 -27 460 -6 254 40 461 142 539 265 49 77 55 124 67 485 5 187 8 483 4
658 l-6 317 70 0 70 0 0 -583 c0 -617 -2 -653 -47 -767 -64 -159 -200 -309
-347 -380 -155 -74 -161 -75 -616 -75 -393 0 -407 1 -485 23 -254 74 -440 265
-505 518 -19 75 -20 116 -20 1273 0 1303 -2 1253 57 1384 26 57 27 58 39 35 7
-13 14 -57 14 -98z m3284 -214 c66 -20 110 -57 140 -118 l26 -52 0 -373 0
-373 -81 0 c-74 0 -80 2 -73 18 5 9 10 147 12 307 l3 289 -31 62 c-32 65 -71
102 -142 134 -40 18 -69 20 -375 20 l-332 0 -20 -26 c-28 -35 -26 -69 4 -99
l24 -25 303 0 c333 0 348 -2 392 -63 20 -27 21 -44 24 -305 2 -158 7 -281 12
-286 6 -6 10 -14 10 -18 0 -5 -235 -7 -522 -6 l-523 3 0 375 c0 347 1 378 19
410 35 66 87 110 156 131 14 4 228 8 476 8 362 1 460 -2 498 -13z m6451 -13
c47 -25 85 -64 111 -113 18 -32 19 -63 19 -410 l0 -375 -49 -3 c-44 -3 -48 -1
-40 15 5 10 9 153 9 318 0 289 -1 302 -22 340 -29 54 -88 109 -143 134 -42 19
-65 21 -377 21 l-332 0 -20 -26 c-27 -34 -27 -64 0 -98 l20 -26 305 0 c331 0
351 -3 392 -55 21 -27 22 -36 22 -292 0 -208 3 -271 14 -298 l15 -35 -555 0
-554 0 0 373 0 373 26 52 c14 29 41 64 58 77 71 54 73 54 586 52 466 -2 476
-2 515 -24z m25 -1111 c0 -5 -11 -14 -25 -20 -20 -9 -25 -9 -25 2 0 7 3 16 7
19 9 10 43 9 43 -1z m-7572 -155 c28 -15 52 -34 52 -43 0 -28 30 -74 60 -89
26 -13 437 -15 3686 -15 l3656 0 34 34 c19 19 34 42 34 53 0 13 15 24 53 38
28 11 55 21 60 23 4 2 7 -169 7 -380 l0 -383 -52 -19 c-29 -10 -129 -52 -223
-93 -341 -151 -468 -190 -637 -200 -107 -6 -107 -6 -117 18 -34 90 -189 126
-501 116 -209 -7 -344 -20 -780 -77 -459 -59 -501 -63 -664 -50 -171 14 -1119
20 -1231 8 -125 -13 -255 -88 -255 -147 0 -45 64 -90 156 -109 117 -25 551
-55 799 -56 l250 -1 225 52 c342 79 405 86 760 87 291 1 309 0 386 -22 74 -21
82 -26 87 -52 12 -58 -28 -138 -96 -194 -23 -18 -94 -66 -157 -106 -63 -39
-124 -79 -135 -89 -11 -10 -56 -25 -99 -34 -104 -22 -235 -83 -247 -115 -28
-73 5 -133 100 -182 64 -32 97 -63 106 -101 6 -26 5 -27 -42 -33 -94 -12
-1389 -49 -1688 -48 -121 0 -400 9 -620 20 -598 31 -670 33 -1445 37 -571 3
-736 7 -821 19 -148 22 -179 36 -179 83 0 80 306 232 500 247 47 4 209 24 360
43 303 40 393 43 1115 33 398 -5 514 11 622 83 58 39 103 118 103 181 -1 68
-36 96 -150 121 -107 23 -410 30 -727 16 -386 -17 -646 -18 -717 -2 -135 30
-139 104 -15 229 136 135 313 191 744 232 243 23 277 27 515 70 266 48 353 59
575 75 202 15 350 35 665 90 362 64 606 74 1299 55 574 -15 696 -5 731 60 40
74 -130 164 -360 190 -156 19 -551 7 -864 -24 -239 -24 -290 -26 -650 -24
-383 3 -395 2 -561 -24 -282 -45 -451 -51 -1232 -45 -736 6 -835 10 -1081 52
-216 37 -318 33 -393 -18 -46 -31 -70 -77 -76 -145 -5 -62 -8 -56 102 -210 66
-92 59 -147 -22 -185 -45 -20 -63 -22 -263 -22 -263 0 -309 10 -489 103 -70
36 -170 88 -223 116 l-98 50 0 369 c0 203 3 367 8 365 4 -2 31 -16 60 -31z
m7390 -2419 c-20 -38 -23 -251 -4 -331 9 -38 16 -108 16 -156 l0 -88 -102 -7
c-193 -12 -633 -26 -902 -28 -243 -3 -270 -1 -279 14 -17 25 3 69 42 95 41 28
107 48 221 69 204 37 289 58 408 98 301 102 344 127 357 206 4 25 17 56 29 68
38 42 127 78 199 81 26 1 27 -1 15 -21z"/>
<path d="M10340 13140 c-12 -12 -20 -33 -20 -55 0 -22 8 -43 20 -55 20 -20 33
-20 684 -20 l665 0 20 26 c28 35 26 69 -4 99 l-24 25 -661 0 c-647 0 -660 0
-680 -20z"/>
<path d="M11880 13140 c-26 -26 -27 -90 -2 -113 17 -16 123 -17 1318 -17 842
0 1322 -4 1364 -10 96 -16 200 -69 269 -137 50 -51 71 -85 165 -278 59 -121
114 -228 123 -237 39 -43 133 -8 133 48 0 12 -52 130 -116 261 -116 236 -118
239 -198 318 -61 60 -101 90 -160 118 -143 70 -67 67 -1543 67 -1320 0 -1333
0 -1353 -20z"/>
<path d="M15235 12195 c-14 -13 -25 -36 -25 -50 0 -34 96 -264 123 -292 43
-47 127 -14 127 50 0 41 -98 269 -126 295 -33 29 -69 28 -99 -3z"/>
<path d="M7515 12115 c-31 -30 -33 -77 -5 -105 18 -18 33 -20 188 -20 199 0
274 -11 353 -50 68 -35 111 -38 139 -10 20 20 26 63 14 95 -9 22 -147 90 -212
104 -29 6 -143 11 -253 11 -199 0 -200 0 -224 -25z"/>
<path d="M16656 12059 c-69 -10 -211 -74 -232 -103 -22 -31 -17 -74 11 -101
32 -33 49 -32 141 13 l79 37 216 5 c195 4 219 7 238 24 27 24 28 76 2 107 -19
24 -23 24 -208 26 -103 0 -215 -3 -247 -8z"/>
<path d="M7812 10223 c-7 -3 -19 -18 -28 -34 -16 -32 -12 -63 14 -91 14 -17
172 -18 3054 -18 3025 0 3038 0 3058 20 30 30 27 83 -6 109 l-27 21 -3026 -1
c-1664 0 -3032 -3 -3039 -6z"/>
<path d="M14092 10210 c-28 -26 -30 -90 -4 -113 17 -16 94 -17 900 -17 l881 0
15 22 c23 33 20 81 -7 106 l-23 22 -870 0 c-862 0 -870 0 -892 -20z"/>
<path d="M16075 10205 c-31 -30 -33 -77 -5 -105 20 -20 31 -20 417 -18 l396 3
20 27 c23 30 18 67 -13 98 -19 19 -35 20 -405 20 l-386 0 -24 -25z"/>
<path d="M7332 9693 c-27 -24 -192 -403 -192 -442 0 -20 8 -36 26 -50 34 -27
67 -27 98 2 27 24 196 401 196 436 0 56 -85 91 -128 54z"/>
<path d="M7876 9609 c-20 -16 -26 -29 -26 -59 0 -30 6 -43 26 -59 24 -19 40
-21 174 -21 119 0 160 -4 211 -20 81 -25 160 -78 202 -136 18 -25 111 -211
207 -412 95 -202 183 -377 194 -389 43 -50 126 -17 126 50 0 37 -335 752 -389
830 -72 105 -210 193 -346 222 -42 9 -126 15 -211 15 -128 0 -144 -2 -168 -21z"/>
<path d="M9251 9663 c-18 -9 -45 -34 -60 -57 -22 -33 -26 -51 -26 -105 1 -61
12 -97 143 -436 153 -397 169 -425 242 -445 49 -14 1173 -13 1222 0 81 23 136
106 126 193 -6 48 -281 768 -307 804 -9 12 -32 31 -52 42 -36 21 -48 21 -645
21 -546 0 -612 -2 -643 -17z"/>
<path d="M10954 9659 c-13 -15 -19 -39 -21 -87 -3 -59 9 -112 106 -467 95
-347 113 -403 136 -422 l26 -23 1104 0 1104 0 26 23 c22 19 40 77 135 427 117
431 125 480 90 538 l-20 32 -1333 0 -1334 0 -19 -21z"/>
<path d="M14110 9661 c-19 -10 -42 -29 -52 -42 -28 -37 -298 -748 -305 -801
-11 -92 42 -175 127 -198 26 -7 237 -10 627 -8 567 3 589 4 622 23 19 11 42
31 53 45 10 14 84 196 164 404 135 351 146 383 142 432 -3 34 -14 66 -30 92
-50 75 -23 72 -705 72 -573 0 -610 -1 -643 -19z"/>
<path d="M16383 9619 c-147 -25 -288 -114 -366 -232 -54 -81 -387 -792 -387
-825 0 -63 85 -96 127 -49 11 12 98 186 193 387 95 201 188 385 206 409 49 64
126 118 201 141 53 16 93 20 213 20 142 0 150 1 176 23 20 17 27 33 27 57 0
24 -7 40 -27 57 -26 22 -34 23 -169 22 -78 -1 -165 -5 -194 -10z"/>
<path d="M17263 9710 c-25 -10 -43 -39 -43 -69 0 -37 131 -426 151 -445 43
-45 129 -10 129 52 0 14 -30 116 -66 226 -78 239 -97 266 -171 236z"/>
<path d="M7810 7440 c-44 -44 -31 -109 26 -131 16 -6 804 -8 2151 -7 l2125 3
19 24 c26 32 25 82 -4 109 l-23 22 -2137 0 c-2114 0 -2137 0 -2157 -20z"/>
<path d="M12735 7435 c-43 -42 -29 -105 26 -124 44 -15 4223 -16 4266 -1 54
19 69 85 28 125 l-24 25 -2136 0 -2136 0 -24 -25z"/>
<path d="M6615 7340 c-22 -24 -16 -68 26 -195 159 -476 576 -827 1082 -912 97
-16 111 -16 135 -2 50 27 56 110 9 128 -12 5 -58 14 -102 21 -412 62 -787 346
-940 710 -14 32 -36 98 -50 147 -15 54 -33 95 -46 106 -29 24 -91 22 -114 -3z"/>
<path d="M17881 7341 c-11 -11 -25 -39 -31 -63 -6 -24 -22 -77 -37 -118 -135
-394 -500 -696 -938 -775 -49 -9 -100 -19 -112 -21 -56 -11 -71 -77 -27 -121
24 -24 31 -25 84 -20 378 40 750 257 970 565 77 108 161 279 195 396 31 108
32 151 6 166 -32 17 -89 12 -110 -9z"/>
<path d="M10128 6780 c-45 -35 -49 -62 -46 -282 l3 -205 28 -36 28 -37 2137 0
c1271 0 2153 4 2177 10 22 5 50 21 63 35 21 25 22 33 22 241 0 234 -5 259 -55
282 -20 9 -531 12 -2179 12 -2126 0 -2154 0 -2178 -20z"/>
<path d="M16065 16227 c-41 -41 -54 -89 -66 -237 -4 -63 -11 -126 -15 -140
-54 -216 -154 -376 -307 -494 -52 -40 -83 -72 -97 -100 -61 -127 13 -157 293
-118 l137 19 0 -41 c0 -53 -33 -187 -61 -251 -68 -155 -204 -298 -354 -371
-164 -80 -212 -177 -112 -231 26 -15 55 -18 152 -17 117 1 122 1 197 37 42 20
84 37 92 37 14 0 16 -34 17 -287 0 -159 4 -321 8 -362 6 -66 10 -77 39 -102
58 -52 160 -30 209 45 49 76 64 177 79 534 7 159 7 162 28 156 35 -11 78 -35
129 -70 52 -38 187 -81 279 -91 106 -11 135 39 81 138 -19 36 -40 57 -77 78
-222 125 -394 350 -471 616 -31 109 -32 139 -3 159 31 22 54 20 167 -10 111
-30 171 -28 215 7 50 40 32 79 -129 279 -123 152 -191 258 -226 350 -31 82
-50 204 -43 276 10 91 -2 149 -38 189 -40 47 -78 47 -123 2z"/>
<path d="M20220 15733 c-32 -12 -71 -46 -87 -76 -14 -26 -18 -60 -18 -167 -1
-112 -4 -145 -22 -193 -51 -136 -173 -275 -408 -466 -216 -176 -254 -217 -240
-262 16 -49 169 -77 297 -54 235 43 288 48 329 36 77 -23 73 -80 -16 -248 -57
-109 -114 -180 -222 -283 -136 -130 -292 -227 -482 -301 -84 -33 -101 -43
-138 -88 -51 -61 -58 -111 -20 -133 31 -18 198 -14 317 6 111 20 341 74 466
110 48 14 90 24 92 21 7 -7 -36 -102 -79 -175 -133 -225 -354 -419 -639 -563
-126 -64 -400 -167 -442 -167 -16 0 -80 -64 -97 -97 -6 -12 -11 -35 -11 -52 0
-24 7 -34 33 -48 112 -59 647 38 1035 189 57 22 106 37 110 34 3 -4 8 -46 10
-94 3 -71 0 -99 -18 -152 -87 -259 -387 -486 -975 -739 -93 -40 -178 -83 -188
-95 -56 -66 -72 -140 -37 -171 28 -25 150 -23 267 5 274 64 763 267 964 399
90 60 95 56 85 -68 -9 -104 -52 -240 -103 -325 -181 -297 -594 -537 -1133
-656 -80 -18 -152 -36 -160 -40 -8 -4 -30 -26 -48 -50 -26 -34 -32 -51 -30
-79 3 -30 9 -39 44 -58 119 -66 529 -54 934 27 168 34 304 72 362 101 57 29
65 17 50 -70 -6 -37 -20 -88 -30 -112 -43 -98 -149 -210 -292 -306 -133 -90
-347 -187 -688 -313 -119 -44 -257 -97 -307 -117 -235 -94 -278 -155 -154
-217 50 -25 61 -26 205 -26 183 0 322 17 578 71 574 121 729 146 747 118 48
-77 46 -424 -5 -926 -47 -469 -59 -683 -46 -860 21 -290 92 -452 230 -527 115
-63 215 -3 269 162 76 229 79 600 11 1452 -38 479 -44 588 -35 655 6 52 8 55
34 55 60 0 258 -43 486 -105 355 -97 452 -115 641 -122 169 -6 336 12 396 43
84 44 90 143 10 183 -12 7 -89 23 -170 37 -690 115 -1154 437 -1306 908 -15
43 -26 82 -26 86 0 4 53 -14 118 -40 282 -114 729 -201 1057 -204 137 -1 141
0 200 29 49 24 61 35 63 57 6 53 -51 80 -530 257 -443 164 -667 289 -833 463
-117 122 -172 255 -162 391 2 37 7 70 10 73 3 3 21 -5 39 -19 91 -70 394 -164
705 -218 97 -17 169 -23 295 -23 154 -1 169 1 195 20 47 35 43 71 -17 137 -39
42 -62 59 -93 67 -493 123 -869 388 -1042 735 -52 106 -95 229 -83 241 4 3 39
-13 80 -35 245 -134 593 -225 910 -238 l147 -6 36 36 c46 46 49 101 8 147 -27
30 -34 32 -153 46 -281 33 -463 110 -626 266 -97 93 -164 190 -216 311 -52
120 -110 347 -89 347 5 0 26 -7 47 -16 76 -32 227 -55 399 -61 181 -6 262 3
324 35 30 15 37 25 39 54 3 31 -3 40 -51 85 -49 44 -64 52 -157 76 -199 52
-380 157 -517 300 -114 119 -172 230 -188 361 l-7 56 37 0 c21 0 110 -7 198
-16 208 -20 422 -16 460 9 38 24 36 64 -6 119 -25 33 -56 55 -132 93 -132 66
-213 123 -300 209 -155 154 -226 304 -244 520 -11 129 -50 199 -128 232 -32
14 -95 17 -123 7z"/>
<path d="M4118 15583 c-54 -34 -68 -78 -67 -209 0 -93 -4 -133 -20 -184 -41
-132 -138 -260 -331 -437 -144 -132 -200 -196 -200 -228 0 -72 127 -94 316
-54 134 27 197 29 224 4 28 -25 24 -61 -20 -174 -45 -117 -131 -240 -242 -346
-107 -104 -198 -167 -330 -230 -97 -46 -134 -76 -163 -134 -41 -81 16 -112
176 -92 120 15 413 89 547 139 15 5 -11 -65 -62 -165 -88 -174 -249 -350 -429
-471 -125 -83 -230 -136 -375 -186 -108 -37 -128 -52 -158 -118 -38 -85 4
-113 159 -106 173 9 514 101 711 192 44 20 81 34 83 32 2 -2 6 -35 10 -72 24
-303 -252 -585 -853 -870 -107 -51 -111 -54 -137 -106 -52 -102 -33 -138 73
-138 80 0 193 30 360 97 210 83 530 255 607 325 l22 21 7 -29 c11 -43 -12
-198 -41 -284 -14 -41 -44 -106 -67 -144 -54 -91 -186 -228 -296 -306 -157
-112 -411 -221 -650 -280 -88 -21 -96 -25 -123 -63 -42 -57 -41 -110 3 -137
116 -70 569 -40 913 61 56 17 129 47 188 77 15 8 7 -98 -13 -159 -26 -85 -68
-150 -149 -229 -131 -130 -308 -229 -699 -395 -282 -120 -372 -169 -387 -209
-11 -33 -1 -52 44 -83 42 -28 119 -37 245 -29 139 10 233 27 516 96 259 63
399 90 460 90 l38 0 13 -67 c24 -116 16 -413 -21 -813 -28 -298 -33 -400 -34
-630 0 -292 7 -358 53 -481 61 -161 188 -242 271 -173 140 118 163 506 90
1519 -25 346 -35 603 -24 631 9 20 11 20 94 6 47 -8 159 -36 250 -64 416 -126
472 -138 654 -138 228 1 325 41 326 133 0 42 -31 82 -72 91 -12 3 -80 17 -149
31 -140 27 -294 78 -414 135 -256 123 -474 341 -571 570 -30 73 -64 182 -64
208 0 6 38 -7 84 -28 233 -108 605 -190 876 -194 94 -1 110 2 154 24 124 63
82 105 -240 239 -564 235 -796 394 -903 621 -36 76 -55 183 -46 256 l6 54 32
-24 c194 -145 833 -286 970 -214 51 26 50 70 -2 136 -37 47 -45 51 -153 86
-213 69 -376 166 -530 314 -149 144 -242 294 -293 468 -14 47 -25 92 -25 100
0 9 24 -1 68 -28 185 -114 407 -187 662 -218 158 -19 224 -9 250 39 18 35 12
98 -13 126 -19 22 -35 28 -102 36 -332 40 -546 188 -679 469 -46 97 -91 250
-102 347 l-7 53 45 -19 c88 -38 204 -55 368 -56 139 0 160 2 202 22 55 25 68
55 44 101 -24 47 -81 87 -148 106 -248 69 -477 267 -558 482 -20 55 -44 183
-36 191 3 3 78 -2 168 -12 208 -22 367 -18 397 9 54 49 6 127 -129 206 -52 31
-129 88 -173 129 -162 153 -236 309 -256 540 -7 75 -15 111 -33 143 -43 79
-127 110 -190 71z"/>
<path d="M7670 15226 c-48 -27 -70 -85 -80 -208 -15 -177 -51 -290 -129 -410
-52 -79 -165 -192 -229 -228 -76 -43 -110 -152 -55 -181 33 -18 170 -16 308 4
55 8 103 12 107 8 12 -10 -10 -134 -36 -205 -67 -185 -239 -361 -402 -413 -76
-23 -136 -89 -132 -142 3 -31 9 -39 43 -56 33 -17 60 -20 155 -20 105 0 121 3
178 28 35 16 76 32 91 37 l28 8 6 -142 c4 -77 7 -222 7 -321 0 -161 2 -183 20
-212 37 -62 139 -66 208 -8 67 56 90 166 100 477 l7 197 56 -23 c31 -12 77
-37 104 -55 53 -36 218 -81 295 -81 52 0 90 22 90 52 0 11 -12 43 -27 70 -21
39 -38 55 -78 75 -82 42 -165 106 -245 189 -113 119 -176 222 -225 369 -58
171 -30 200 148 154 96 -24 161 -26 211 -5 31 13 36 20 36 48 0 43 -20 74
-122 188 -240 269 -300 393 -296 614 2 113 -8 154 -45 184 -23 19 -70 23 -97
8z"/>
<path d="M16050 13125 c-9 -11 -11 -40 -8 -98 5 -69 12 -96 47 -170 61 -132
74 -147 125 -147 29 0 49 7 65 22 21 19 23 28 19 87 -3 37 -15 88 -26 115 -19
43 -85 135 -134 187 -22 23 -71 25 -88 4z"/>
<path d="M16551 12983 c-19 -37 -91 -216 -91 -228 0 -24 55 -38 94 -25 41 13
56 34 50 70 -3 14 6 58 20 99 29 84 24 101 -30 101 -21 0 -37 -6 -43 -17z"/>
<path d="M16833 12838 c-26 -29 -48 -90 -40 -111 8 -20 49 -31 83 -23 42 11
72 114 42 144 -19 19 -63 14 -85 -10z"/>
<path d="M17802 11244 c-38 -26 -29 -63 40 -156 33 -45 66 -86 72 -91 22 -15
110 3 133 28 29 33 47 120 34 175 -11 48 -25 61 -61 58 -21 -3 -31 -13 -57
-66 0 -2 -25 13 -53 32 -58 40 -75 43 -108 20z"/>
<path d="M6146 10990 c-19 -17 -61 -65 -93 -107 l-58 -76 -5 61 c-3 34 -10 66
-17 73 -17 17 -71 15 -89 -2 -23 -24 -36 -129 -24 -196 5 -32 15 -103 20 -157
6 -55 16 -106 22 -113 6 -7 26 -13 44 -13 19 0 34 -4 34 -10 0 -5 11 -17 25
-26 24 -16 27 -15 63 9 135 91 329 337 309 391 -4 9 -18 21 -32 28 -22 10 -32
7 -76 -21 -28 -17 -53 -30 -55 -28 -2 2 10 36 26 76 44 109 38 141 -27 141
-22 0 -43 -10 -67 -30z"/>
<path d="M18593 9423 c-15 -22 -18 -50 -19 -150 -1 -68 -4 -126 -8 -130 -3 -3
-6 5 -7 18 0 13 -22 71 -48 129 -54 120 -71 133 -123 83 -24 -23 -28 -33 -23
-58 3 -16 9 -50 13 -75 5 -25 14 -56 21 -70 20 -37 90 -100 112 -100 21 0 59
33 59 51 0 6 8 1 18 -11 23 -28 67 -29 94 -3 26 26 40 95 32 152 -9 67 -34
164 -46 179 -18 21 -56 14 -75 -15z"/>
<path d="M6199 9294 c-8 -10 -18 -60 -24 -126 l-10 -110 -35 46 c-41 56 -73
67 -103 38 l-21 -21 22 -63 c12 -35 22 -72 22 -83 0 -31 44 -117 80 -158 31
-36 71 -49 85 -27 3 6 17 10 30 10 14 0 32 11 44 26 20 25 21 39 20 218 0 229
-7 260 -60 264 -24 2 -40 -2 -50 -14z"/>
<path d="M4767 8219 c-31 -18 -38 -55 -27 -146 19 -152 78 -277 185 -390 42
-44 68 -63 85 -63 19 0 21 -3 12 -12 -35 -35 5 -98 61 -98 26 0 46 12 91 52
84 75 266 286 266 308 0 34 -22 68 -53 81 -28 12 -36 9 -116 -32 -47 -24 -88
-45 -91 -47 -4 -1 -1 46 7 105 14 121 8 153 -33 172 -68 31 -102 -1 -134 -127
-13 -51 -27 -89 -30 -85 -4 5 -12 28 -19 53 -17 59 -73 169 -106 208 -28 34
-64 41 -98 21z"/>
<path d="M5601 6772 c-5 -10 -13 -65 -17 -122 l-7 -103 -23 63 c-12 34 -32 71
-43 81 -12 11 -21 24 -21 29 0 6 -13 10 -30 10 -35 0 -39 -10 -42 -119 l-3
-74 -38 56 c-20 31 -41 57 -45 57 -4 0 -18 18 -32 40 -29 48 -60 59 -95 36
-32 -21 -32 -50 1 -123 14 -32 34 -81 45 -110 11 -28 27 -57 36 -65 9 -7 41
-44 72 -83 100 -126 161 -185 192 -185 36 0 64 39 56 78 -7 34 8 66 19 39 8
-22 67 -23 89 0 14 13 16 26 10 67 -4 28 -9 80 -10 116 -6 164 -18 306 -27
318 -16 19 -76 15 -87 -6z"/>
<path d="M19670 6674 c-62 -57 -108 -147 -125 -248 -5 -29 -9 -36 -16 -25 -5
8 -9 24 -9 35 0 37 -69 161 -110 198 -49 44 -82 54 -115 32 -19 -12 -25 -25
-25 -52 0 -42 54 -158 115 -250 25 -37 45 -69 45 -71 0 -3 17 -22 37 -44 46
-48 96 -54 132 -15 22 23 25 24 47 9 14 -9 33 -13 46 -9 13 4 75 72 146 160
129 162 143 193 104 229 -28 26 -45 21 -108 -30 -37 -30 -55 -40 -50 -28 4 10
10 38 13 61 4 34 1 46 -16 63 -31 31 -65 26 -111 -15z"/>
<path d="M5163 5524 c-24 -24 -25 -30 -19 -92 3 -37 9 -123 12 -192 l7 -124
-33 39 c-19 22 -72 79 -119 128 -73 74 -90 87 -118 87 -35 0 -53 -21 -53 -60
0 -18 212 -409 242 -447 12 -15 54 -17 63 -3 11 18 23 11 44 -26 21 -36 23
-37 69 -31 67 8 102 -1 113 -29 11 -30 49 -49 81 -41 28 7 73 66 117 154 44
86 67 158 81 249 11 71 10 79 -8 103 -15 20 -28 26 -58 26 -37 0 -40 -2 -77
-70 -46 -85 -107 -178 -112 -173 -3 2 -30 114 -61 249 -31 134 -63 252 -72
262 -22 25 -68 21 -99 -9z"/>
<path d="M19408 5533 c-9 -10 -21 -36 -28 -58 -16 -55 -25 -311 -12 -357 8
-28 7 -38 -3 -42 -18 -6 -92 -157 -111 -226 -30 -103 -29 -116 4 -150 60 -60
99 -32 172 123 59 128 65 153 45 200 -10 25 -12 43 -7 55 5 9 12 87 16 172 4
85 9 178 12 206 5 44 3 55 -15 73 -26 26 -53 27 -73 4z"/>
<path d="M19080 5446 c-8 -10 -12 -66 -13 -173 -1 -150 1 -163 31 -261 17 -57
36 -110 43 -118 17 -20 56 -17 91 7 26 19 29 26 23 53 -3 17 -10 73 -15 125
-11 107 -41 242 -64 286 -9 17 -16 40 -16 52 0 37 -56 57 -80 29z"/>
</g>
</svg>
