<?xml version="1.0" standalone="no"?>
<!DOCTYPE svg PUBLIC "-//W3C//DTD SVG 20010904//EN"
 "http://www.w3.org/TR/2001/REC-SVG-20010904/DTD/svg10.dtd">
<svg version="1.0" xmlns="http://www.w3.org/2000/svg"
 width="300.000000pt" height="198.000000pt" viewBox="0 0 300.000000 198.000000"
 preserveAspectRatio="xMidYMid meet">

<g transform="translate(0.000000,198.000000) scale(0.100000,-0.100000)"
fill="#000000" stroke="none">
<path d="M1480 1895 c0 -73 -3 -86 -19 -95 -27 -14 -116 -13 -129 3 -5 6 -16
41 -22 77 -13 69 -30 102 -30 58 0 -14 4 -49 10 -77 13 -70 4 -85 -65 -100
-75 -17 -72 -20 -125 122 -5 16 -14 25 -20 22 -6 -3 1 -33 16 -73 14 -37 23
-76 20 -87 -4 -14 -25 -29 -62 -45 l-57 -23 -21 25 c-12 14 -34 47 -50 74 -42
71 -43 38 -1 -39 19 -35 33 -71 30 -78 -5 -14 -17 -23 -83 -62 l-33 -19 -59
63 c-67 72 -82 63 -20 -11 22 -26 40 -58 40 -70 0 -22 -74 -99 -96 -100 -7 0
-37 21 -68 46 -75 62 -85 48 -13 -17 31 -28 57 -55 57 -61 0 -23 -72 -108 -92
-108 -11 0 -45 14 -75 31 -30 17 -57 28 -61 24 -4 -3 0 -11 8 -15 8 -5 33 -20
54 -32 61 -36 65 -49 33 -113 -15 -31 -33 -58 -41 -61 -7 -3 -37 4 -67 15 -30
12 -60 21 -67 21 -27 0 -1 -17 54 -36 72 -24 81 -42 56 -114 l-19 -55 -77 2
c-88 2 -102 -12 -20 -22 69 -9 88 -26 80 -74 -3 -20 -6 -45 -6 -56 -1 -39 -17
-50 -87 -56 l-68 -6 85 -1 86 -2 11 98 c82 682 798 1090 1439 819 331 -139
565 -453 613 -822 7 -49 15 -93 19 -96 4 -4 41 -3 82 1 73 7 73 7 19 9 -78 2
-90 14 -96 93 -6 76 -2 80 79 92 26 4 50 11 53 17 7 11 -12 11 -78 0 -62 -10
-80 3 -97 73 -16 68 -11 76 65 101 30 11 55 23 55 27 0 12 -11 10 -74 -12 -31
-10 -62 -17 -69 -14 -19 7 -68 111 -61 129 3 8 30 29 60 45 29 17 56 35 59 41
12 18 -18 9 -67 -21 -26 -16 -57 -30 -67 -30 -24 0 -91 79 -91 107 0 11 24 40
57 68 31 27 51 51 45 53 -7 2 -36 -17 -66 -42 -29 -25 -58 -46 -65 -46 -18 0
-101 81 -101 99 0 9 20 41 45 71 25 30 45 58 45 62 0 20 -21 4 -61 -47 -24
-30 -50 -57 -58 -60 -19 -8 -121 61 -121 82 0 9 16 44 35 79 37 67 40 74 26
74 -5 0 -26 -30 -46 -66 -20 -36 -43 -68 -52 -71 -18 -7 -111 35 -123 56 -5
10 1 40 16 82 13 36 24 73 24 80 -1 25 -28 -21 -46 -75 -25 -76 -32 -82 -98
-67 -77 17 -82 26 -67 118 11 67 10 95 -4 81 -3 -2 -10 -31 -15 -64 -18 -99
-21 -104 -85 -104 -80 0 -95 18 -95 115 0 43 -4 75 -10 75 -6 0 -10 -35 -10
-85z"/>
<path d="M1355 1669 c-10 -15 3 -25 16 -12 7 7 7 13 1 17 -6 3 -14 1 -17 -5z"/>
<path d="M1616 1672 c-3 -6 -1 -14 5 -17 15 -10 25 3 12 16 -7 7 -13 7 -17 1z"/>
<path d="M1156 1612 c-3 -6 -1 -14 5 -17 15 -10 25 3 12 16 -7 7 -13 7 -17 1z"/>
<path d="M1815 1609 c-10 -15 3 -25 16 -12 7 7 7 13 1 17 -6 3 -14 1 -17 -5z"/>
<path d="M1016 1557 c-7 -37 -37 -70 -76 -86 l-25 -10 28 0 c15 -1 36 8 47 19
11 11 22 20 25 20 3 0 5 -22 5 -50 0 -27 5 -50 10 -50 6 0 10 23 10 52 l0 51
23 -20 c25 -23 64 -35 72 -23 3 5 -9 11 -26 15 -31 7 -69 54 -69 87 0 32 -18
28 -24 -5z"/>
<path d="M1486 1573 c-11 -11 -6 -23 9 -23 8 0 15 4 15 9 0 13 -16 22 -24 14z"/>
<path d="M1950 1565 c0 -33 -27 -69 -65 -86 -35 -17 -37 -19 -14 -19 15 0 38
9 53 21 l26 20 0 -50 c0 -27 5 -53 10 -56 6 -4 10 15 10 50 l0 56 28 -20 c34
-25 72 -36 72 -22 0 6 -8 11 -19 11 -27 0 -70 45 -77 80 -7 30 -24 42 -24 15z"/>
<path d="M1306 1511 c-4 -7 -5 -15 -2 -18 9 -9 19 4 14 18 -4 11 -6 11 -12 0z"/>
<path d="M1666 1512 c-3 -6 -1 -14 5 -17 15 -10 25 3 12 16 -7 7 -13 7 -17 1z"/>
<path d="M1325 1430 c-59 -9 -89 -20 -173 -63 -54 -27 -66 -38 -87 -82 -22
-47 -36 -107 -50 -218 -8 -63 -23 -52 -17 13 5 60 -15 100 -53 100 -38 0 -55
-25 -55 -81 0 -71 12 -89 59 -89 21 0 43 -6 49 -12 12 -15 21 -448 9 -448 -4
0 -13 -12 -19 -26 -11 -24 -9 -29 15 -50 15 -13 27 -33 27 -47 0 -37 19 -47
90 -47 73 0 90 10 90 52 0 26 2 28 44 28 25 0 48 -5 51 -10 4 -7 12 -7 25 0
24 13 306 13 330 0 13 -7 21 -7 25 0 3 5 26 10 51 10 42 0 44 -2 44 -28 0 -42
17 -52 90 -52 72 0 90 10 90 50 0 14 8 30 20 38 23 14 27 54 6 71 -10 9 -12
53 -8 229 2 122 9 222 14 230 6 6 25 12 43 12 41 0 56 18 62 73 5 53 -14 91
-48 95 -43 5 -61 -22 -58 -89 3 -61 -6 -89 -15 -48 -3 13 -8 50 -11 83 -9 80
-32 155 -60 191 -30 40 -161 101 -245 114 -73 12 -260 12 -335 1z m351 -21
c70 -13 156 -48 148 -60 -7 -11 -651 -12 -658 -1 -7 12 60 42 129 57 74 17
301 19 381 4z m209 -112 c31 -26 53 -99 62 -203 l6 -71 -71 -6 c-104 -10 -173
-39 -242 -104 -66 -61 -113 -145 -127 -227 -11 -69 -28 -68 -42 2 -36 182
-178 312 -359 328 -40 4 -75 11 -78 16 -6 9 11 132 27 190 5 20 21 51 35 68
l26 30 368 0 369 0 26 -23z m-911 -153 c10 -27 7 -89 -6 -102 -17 -17 -45 -15
-52 4 -8 20 -8 78 0 98 3 9 16 16 29 16 13 0 26 -7 29 -16z m1095 2 c17 -20
10 -97 -10 -109 -32 -20 -49 -1 -49 56 0 30 3 57 7 60 11 12 40 8 52 -7z
m-845 -176 c102 -39 189 -139 222 -257 24 -86 18 -96 -54 -89 -31 3 -126 5
-209 5 l-153 0 0 170 c0 202 2 207 87 197 29 -3 77 -15 107 -26z m720 11 c14
-16 16 -40 14 -182 l-3 -164 -214 -2 -214 -2 7 46 c19 142 152 285 289 313 70
13 103 11 121 -9z m-656 -403 c-3 -22 -6 -23 -123 -23 -117 0 -120 1 -123 23
-3 22 -2 22 123 22 125 0 126 0 123 -22z m29 -70 c-2 -18 -4 -4 -4 32 0 36 2
50 4 33 2 -18 2 -48 0 -65z m328 67 c0 -19 -7 -20 -150 -20 -148 0 -150 0
-153 23 l-3 23 153 -3 c145 -3 153 -4 153 -23z m35 -35 c0 -33 -4 -60 -10 -60
-6 0 -10 27 -10 60 0 33 4 60 10 60 6 0 10 -27 10 -60z m268 38 c-3 -22 -6
-23 -123 -23 -117 0 -120 1 -123 23 -3 22 -2 22 123 22 125 0 126 0 123 -22z
m-660 -70 c-3 -22 -7 -23 -134 -26 -106 -2 -133 0 -143 12 -25 30 -1 36 140
36 140 0 140 0 137 -22z m360 0 c-3 -23 -5 -23 -153 -23 -148 0 -150 0 -153
23 l-3 22 156 0 156 0 -3 -22z m335 8 c12 -30 -19 -37 -149 -34 -125 3 -129 4
-132 26 -3 22 -3 22 136 22 112 0 141 -3 145 -14z m-913 -76 c0 -11 5 -20 10
-20 6 0 10 9 10 20 0 11 5 20 10 20 6 0 10 -9 10 -20 0 -11 5 -20 10 -20 6 0
10 9 10 20 0 11 5 20 10 20 6 0 10 -9 10 -20 0 -11 5 -20 10 -20 6 0 10 9 10
20 0 11 5 20 11 20 6 0 9 -12 7 -27 -3 -27 -5 -28 -70 -31 l-68 -3 0 31 c0 16
5 30 10 30 6 0 10 -9 10 -20z m750 0 c0 -11 5 -20 10 -20 6 0 10 9 10 20 0 11
5 20 10 20 6 0 10 -9 10 -20 0 -11 5 -20 10 -20 6 0 10 9 10 20 0 11 5 20 10
20 6 0 10 -9 10 -20 0 -11 5 -20 10 -20 6 0 10 9 10 20 0 11 5 20 11 20 6 0 9
-12 7 -27 -3 -27 -5 -28 -68 -28 -63 0 -65 1 -68 28 -2 15 1 27 7 27 6 0 11
-9 11 -20z"/>
<path d="M1122 1258 c-6 -7 -16 -50 -22 -96 -18 -123 -19 -122 180 -122 134 0
160 2 171 16 17 21 24 150 10 187 l-11 27 -159 0 c-115 0 -161 -3 -169 -12z
m306 -8 c9 0 12 -25 12 -89 0 -72 -3 -90 -16 -95 -26 -10 -278 -7 -294 4 -11
7 -4 10 28 10 23 0 42 5 42 10 0 6 -19 11 -42 12 l-43 1 43 4 c50 5 57 23 8
23 -19 0 -38 5 -41 10 -4 6 12 10 39 10 25 0 46 5 46 10 0 6 -18 10 -40 10
-22 0 -40 5 -40 10 0 6 18 10 40 10 22 0 40 5 40 10 0 6 -18 10 -40 10 -28 0
-40 4 -40 15 0 29 33 32 298 25z"/>
<path d="M1410 1160 c0 -33 4 -60 10 -60 6 0 10 27 10 60 0 33 -4 60 -10 60
-6 0 -10 -27 -10 -60z"/>
<path d="M1530 1251 c-16 -31 -13 -163 6 -189 15 -21 21 -22 174 -22 155 0
160 1 174 23 13 18 14 35 5 92 -18 123 -4 115 -188 115 -148 0 -161 -1 -171
-19z m325 -26 c0 -16 -9 -21 -45 -26 -48 -6 -39 -16 20 -22 33 -4 32 -4 -7 -5
-58 -3 -55 -22 3 -22 27 0 43 -4 39 -10 -3 -5 -25 -10 -48 -10 -51 0 -38 -17
18 -23 l40 -4 -42 -1 c-51 -2 -58 -22 -8 -22 19 0 35 -4 35 -10 0 -6 -58 -10
-154 -10 -131 0 -155 2 -160 16 -8 22 -8 159 1 168 4 3 75 5 157 4 143 -3 151
-4 151 -23z"/>
<path d="M1560 1160 c0 -33 4 -60 10 -60 6 0 10 27 10 60 0 33 -4 60 -10 60
-6 0 -10 -27 -10 -60z"/>
<path d="M1445 950 c-59 -65 33 -162 95 -100 26 26 26 81 2 103 -26 23 -75 21
-97 -3z m83 -12 c7 -7 12 -25 12 -40 0 -54 -79 -61 -93 -9 -11 44 50 80 81 49z"/>
<path d="M1506 915 c4 -8 1 -22 -6 -30 -7 -8 -8 -15 -2 -15 17 0 33 27 26 44
-3 9 -10 16 -15 16 -4 0 -6 -7 -3 -15z"/>
<path d="M1200 946 c0 -2 20 -16 44 -30 24 -14 64 -48 89 -76 42 -47 57 -77
86 -170 11 -35 11 -35 6 10 -8 62 -47 139 -97 189 -46 46 -128 95 -128 77z"/>
<path d="M1076 908 c-25 -35 7 -78 44 -58 22 12 27 49 8 68 -18 18 -35 15 -52
-10z m44 -24 c0 -14 -21 -19 -33 -7 -9 9 13 34 24 27 5 -3 9 -12 9 -20z"/>
<path d="M1149 792 c-28 -23 -30 -73 -4 -102 25 -28 79 -27 99 2 50 71 -28
153 -95 100z m79 -14 c15 -15 15 -61 0 -76 -24 -24 -88 -1 -88 32 0 42 60 72
88 44z"/>
<path d="M1164 755 c-14 -37 26 -69 53 -42 22 22 8 57 -23 57 -14 0 -27 -7
-30 -15z"/>
<path d="M1709 911 c-82 -59 -135 -143 -144 -228 l-5 -48 18 60 c10 33 26 75
36 93 24 46 87 107 136 132 22 11 40 23 40 25 0 14 -33 1 -81 -34z"/>
<path d="M1856 914 c-21 -20 -20 -30 4 -54 16 -16 25 -18 40 -10 22 12 27 49
8 68 -16 16 -33 15 -52 -4z m44 -30 c0 -14 -21 -19 -33 -7 -9 9 13 34 24 27 5
-3 9 -12 9 -20z"/>
<path d="M1750 790 c-26 -26 -26 -81 -2 -103 25 -22 75 -21 95 1 39 42 7 122
-48 122 -14 0 -34 -9 -45 -20z m86 -25 c15 -23 15 -27 0 -50 -29 -44 -86 -28
-86 25 0 53 57 69 86 25z"/>
<path d="M1763 754 c-8 -22 10 -49 32 -49 22 0 40 27 32 49 -8 21 -56 21 -64
0z"/>
<path d="M830 1416 c0 -34 -26 -70 -65 -87 -35 -17 -37 -19 -14 -19 15 0 38 9
53 21 19 15 26 17 26 6 0 -23 -44 -82 -65 -85 -30 -6 -43 -22 -18 -22 12 0 35
12 52 26 l31 26 0 -67 c0 -41 4 -64 10 -60 6 3 10 31 10 60 l0 55 33 -20 c34
-21 57 -26 57 -11 0 5 -13 11 -30 14 -29 6 -60 48 -60 82 0 14 4 13 26 -4 15
-12 36 -21 48 -20 17 0 15 3 -11 15 -35 15 -63 49 -63 76 0 9 -4 20 -10 23 -5
3 -10 -1 -10 -9z"/>
<path d="M2145 1415 c-15 -47 -33 -71 -65 -87 -27 -14 -30 -18 -14 -18 12 0
33 9 48 21 26 20 26 20 26 0 0 -27 -47 -81 -71 -81 -10 0 -19 -4 -19 -10 0
-16 22 -12 58 10 l32 20 0 -60 c0 -33 4 -60 10 -60 6 0 10 29 10 66 l0 66 31
-26 c29 -25 77 -37 64 -16 -3 6 -14 10 -24 10 -24 0 -58 38 -67 74 l-7 30 28
-22 c15 -12 39 -22 54 -21 25 0 25 1 -6 12 -42 15 -52 26 -68 73 -11 33 -14
36 -20 19z"/>
<path d="M997 1334 c-8 -8 1 -24 14 -24 5 0 9 7 9 15 0 15 -12 20 -23 9z"/>
<path d="M1970 1325 c0 -8 5 -15 10 -15 6 0 10 7 10 15 0 8 -4 15 -10 15 -5 0
-10 -7 -10 -15z"/>
<path d="M640 1215 c0 -9 5 -15 11 -13 6 2 11 8 11 13 0 5 -5 11 -11 13 -6 2
-11 -4 -11 -13z"/>
<path d="M2325 1221 c-6 -11 9 -23 19 -14 9 9 7 23 -3 23 -6 0 -12 -4 -16 -9z"/>
<path d="M706 1170 c-2 -8 -7 -27 -10 -42 -9 -42 -53 -87 -92 -94 -47 -9 -45
-28 3 -21 20 4 49 19 65 33 28 27 28 27 28 5 0 -50 -48 -108 -97 -117 -36 -7
-45 -24 -12 -24 25 0 57 16 87 43 l22 20 0 -22 c0 -52 -60 -121 -106 -121 -13
0 -24 -5 -24 -11 0 -21 72 -1 102 27 28 27 28 27 28 5 0 -50 -48 -108 -97
-117 -36 -7 -45 -24 -12 -24 25 0 57 16 87 43 l22 20 0 -22 c0 -50 -48 -108
-97 -117 -46 -9 -43 -28 4 -21 20 4 49 19 65 33 l28 28 0 -92 c0 -55 4 -92 10
-92 6 0 10 37 10 90 0 50 3 90 6 90 4 0 22 -14 41 -30 21 -19 45 -30 64 -30
36 0 31 15 -9 23 -37 8 -79 51 -92 95 -13 47 -6 51 29 18 15 -15 44 -29 64
-33 47 -7 50 12 4 21 -41 8 -84 51 -97 96 -5 19 -8 36 -5 38 2 3 20 -9 40 -27
23 -20 46 -31 66 -31 36 0 31 15 -9 23 -36 7 -80 51 -91 91 -12 45 -3 51 29
21 15 -14 43 -28 63 -32 47 -7 50 12 4 21 -41 8 -84 51 -97 96 -13 45 -6 49
29 16 29 -28 101 -48 101 -27 0 6 -12 11 -26 11 -34 0 -104 68 -104 101 0 13
-4 31 -10 39 -8 13 -9 13 -14 0z"/>
<path d="M2266 1170 c-2 -8 -7 -28 -11 -44 -9 -40 -66 -96 -99 -96 -14 0 -26
-5 -26 -11 0 -21 72 -1 102 27 28 27 28 27 28 5 0 -50 -48 -108 -97 -117 -46
-9 -43 -28 4 -21 20 4 49 19 65 33 28 27 28 27 28 5 0 -52 -60 -121 -106 -121
-13 0 -24 -4 -24 -10 0 -23 60 -9 95 21 33 29 35 30 35 9 0 -49 -48 -107 -97
-116 -46 -9 -43 -28 4 -21 20 4 49 19 65 33 28 27 28 27 28 5 0 -52 -60 -121
-106 -121 -13 0 -24 -4 -24 -10 0 -23 60 -9 95 21 l35 31 0 -91 c0 -54 4 -91
10 -91 6 0 10 37 10 90 0 85 8 108 27 77 22 -36 113 -66 113 -37 0 6 -9 10
-21 10 -46 0 -93 43 -109 101 -11 39 -1 43 30 14 15 -14 43 -28 63 -32 47 -7
50 12 4 21 -41 8 -84 51 -97 96 -11 38 -4 53 13 30 21 -28 61 -50 89 -50 16 0
28 5 28 10 0 6 -9 10 -21 10 -46 0 -93 43 -109 101 -11 39 -1 43 30 14 15 -14
43 -28 63 -32 47 -7 50 12 4 21 -41 8 -84 51 -97 96 -13 45 -6 49 29 16 29
-28 101 -48 101 -27 0 6 -12 11 -26 11 -34 0 -104 68 -104 101 0 13 -4 31 -10
39 -8 13 -9 13 -14 0z"/>
<path d="M925 919 c-10 -15 3 -25 16 -12 7 7 7 13 1 17 -6 3 -14 1 -17 -5z"/>
<path d="M2046 923 c-11 -11 -6 -23 9 -23 8 0 15 4 15 9 0 13 -16 22 -24 14z"/>
<path d="M480 670 c0 -5 7 -10 15 -10 8 0 15 5 15 10 0 6 -7 10 -15 10 -8 0
-15 -4 -15 -10z"/>
<path d="M2482 669 c2 -6 8 -10 13 -10 5 0 11 4 13 10 2 6 -4 11 -13 11 -9 0
-15 -5 -13 -11z"/>
<path d="M916 533 c-11 -11 -6 -23 9 -23 8 0 15 4 15 9 0 13 -16 22 -24 14z"/>
<path d="M2050 520 c0 -5 7 -10 15 -10 8 0 15 5 15 10 0 6 -7 10 -15 10 -8 0
-15 -4 -15 -10z"/>
<path d="M7 294 c-4 -4 -7 -67 -7 -141 l0 -133 34 0 c34 0 35 1 38 47 2 25 8
48 14 50 6 2 26 -19 44 -47 30 -46 35 -50 71 -50 21 0 39 2 39 5 0 3 -22 36
-50 74 -27 38 -50 73 -50 79 0 5 20 32 45 60 25 27 45 53 45 57 0 3 -17 5 -37
3 -32 -3 -43 -11 -78 -57 l-40 -54 -5 54 c-5 49 -7 54 -30 57 -14 2 -29 0 -33
-4z"/>
<path d="M426 291 c-11 -18 -96 -246 -96 -258 0 -7 11 -13 26 -13 19 0 28 7
35 30 10 28 14 30 64 30 50 0 54 -2 64 -30 8 -25 15 -30 41 -30 36 0 38 -13
-24 160 -40 112 -42 115 -73 118 -17 2 -34 -1 -37 -7z m58 -138 c7 -21 4 -23
-28 -23 -20 0 -36 1 -36 3 0 2 8 26 17 53 l17 49 12 -30 c6 -17 15 -40 18 -52z"/>
<path d="M697 293 c-4 -3 -7 -66 -7 -140 l0 -133 30 0 30 0 0 90 c0 50 3 90 8
90 4 0 22 -23 41 -51 l35 -51 20 28 c12 16 31 40 43 54 l22 25 1 -92 0 -93 30
0 31 0 -3 137 -3 138 -27 3 c-22 3 -33 -6 -68 -52 -24 -31 -44 -56 -45 -56 -1
0 -20 25 -40 55 -30 43 -44 55 -65 55 -15 0 -30 -3 -33 -7z"/>
<path d="M1149 285 c-78 -42 -78 -209 0 -249 30 -16 97 -21 139 -10 16 5 22
14 22 35 0 26 -2 28 -26 19 -76 -29 -124 2 -124 80 0 66 25 94 78 88 21 -3 45
-8 55 -12 14 -7 17 -3 17 18 0 19 -7 29 -26 36 -36 14 -105 12 -135 -5z"/>
<path d="M1424 287 c-2 -7 -3 -69 -2 -138 l3 -124 33 -3 32 -3 0 55 0 56 50 0
50 0 0 -55 0 -55 35 0 36 0 -3 137 -3 138 -30 0 c-30 0 -30 -1 -33 -57 l-3
-58 -49 0 -50 0 0 60 0 60 -30 0 c-17 0 -33 -6 -36 -13z"/>
<path d="M1862 287 c-9 -11 -102 -250 -102 -262 0 -3 13 -5 28 -5 22 0 30 7
39 30 10 28 15 30 63 30 48 0 52 -2 61 -30 9 -24 17 -30 40 -30 18 0 29 5 29
14 0 12 -52 164 -81 239 -9 20 -18 27 -39 27 -15 0 -32 -6 -38 -13z m38 -82
c25 -67 24 -75 -9 -75 -17 0 -31 5 -31 11 0 16 22 89 27 89 2 0 8 -11 13 -25z"/>
<path d="M2084 285 c-11 -28 4 -45 41 -45 l35 0 0 -111 0 -110 33 3 32 3 3
110 3 111 34 -4 c33 -4 35 -3 35 27 l0 31 -105 0 c-85 0 -107 -3 -111 -15z"/>
<path d="M2410 160 l0 -140 29 0 c28 0 30 2 33 47 2 25 8 48 14 50 6 2 26 -19
45 -46 31 -45 38 -51 72 -51 20 0 37 3 37 6 0 3 -23 39 -51 79 l-52 74 47 54
c25 30 46 57 46 61 0 3 -16 6 -35 6 -30 0 -39 -7 -77 -57 l-43 -58 -3 58 c-3
56 -4 57 -32 57 l-30 0 0 -140z"/>
<path d="M2781 169 c-28 -72 -51 -135 -51 -140 0 -5 13 -9 28 -9 22 0 30 7 39
30 10 28 15 30 61 30 47 0 51 -2 61 -30 8 -24 16 -30 40 -30 17 0 31 4 31 9 0
16 -82 245 -93 259 -5 6 -22 12 -37 12 -27 0 -31 -6 -79 -131z m97 12 c16 -52
16 -51 -18 -51 -16 0 -30 3 -30 6 0 17 24 84 30 84 4 0 12 -17 18 -39z"/>
<path d="M632 21 c2 -7 7 -12 11 -12 12 1 9 15 -3 20 -7 2 -11 -2 -8 -8z"/>
<path d="M2330 15 c0 -8 5 -15 10 -15 6 0 10 7 10 15 0 8 -4 15 -10 15 -5 0
-10 -7 -10 -15z"/>
</g>
</svg>
