<?xml version="1.0" standalone="no"?>
<!DOCTYPE svg PUBLIC "-//W3C//DTD SVG 20010904//EN"
 "http://www.w3.org/TR/2001/REC-SVG-20010904/DTD/svg10.dtd">
<svg version="1.0" xmlns="http://www.w3.org/2000/svg"
 width="662.000000pt" height="710.000000pt" viewBox="0 0 662.000000 710.000000"
 preserveAspectRatio="xMidYMid meet">

<g transform="translate(0.000000,710.000000) scale(0.100000,-0.100000)"
fill="#000000" stroke="none">
<path d="M1653 7033 c911 -2 2403 -2 3315 0 911 1 165 2 -1658 2 -1823 0
-2569 -1 -1657 -2z"/>
<path d="M3146 6756 c-11 -27 -23 -37 -56 -47 l-42 -13 38 -11 c32 -8 41 -17
50 -45 12 -38 34 -52 34 -23 0 30 28 61 58 65 l27 4 -30 13 c-36 15 -45 27
-45 64 0 37 -17 34 -34 -7z"/>
<path d="M3777 6753 c-4 -3 -7 -19 -7 -35 0 -58 -49 -118 -97 -118 -13 0 -23
-4 -23 -10 0 -5 7 -10 15 -10 25 0 72 -28 80 -47 4 -10 10 -45 14 -77 3 -33
11 -61 17 -63 5 -2 16 19 23 47 18 69 53 108 102 116 48 8 54 34 8 34 -35 0
-89 47 -89 77 0 28 -20 93 -29 93 -4 0 -11 -3 -14 -7z"/>
<path d="M3467 6723 c-4 -3 -7 -15 -7 -25 0 -28 34 -19 38 10 3 21 -16 31 -31
15z"/>
<path d="M2763 6614 c-3 -8 -1 -20 4 -25 12 -12 48 14 39 29 -10 17 -36 15
-43 -4z"/>
<path d="M3445 6506 c-25 -18 -16 -60 14 -64 31 -5 54 23 41 48 -13 24 -35 31
-55 16z"/>
<path d="M4320 6490 c-15 -28 4 -52 39 -48 22 2 26 8 26 33 0 25 -4 31 -27 33
-19 2 -30 -3 -38 -18z"/>
<path d="M2572 6449 c2 -6 8 -10 13 -10 5 0 11 4 13 10 2 6 -4 11 -13 11 -9 0
-15 -5 -13 -11z"/>
<path d="M2362 6421 c2 -7 7 -12 11 -12 12 1 9 15 -3 20 -7 2 -11 -2 -8 -8z"/>
<path d="M4087 6414 c-8 -8 1 -24 14 -24 5 0 9 7 9 15 0 15 -12 20 -23 9z"/>
<path d="M3405 6362 c-40 -19 -76 -49 -270 -224 -117 -106 -142 -115 -219 -73
-63 34 -109 30 -161 -17 -20 -17 -103 -115 -185 -218 -82 -103 -156 -190 -165
-194 -30 -11 -50 -6 -105 29 -83 53 -106 49 -195 -35 -41 -38 -81 -70 -90 -70
-8 0 -43 29 -78 65 -108 111 -127 100 -309 -171 -58 -87 -109 -170 -113 -184
-4 -14 -17 -35 -28 -47 -20 -23 -20 -23 -1 -45 11 -13 28 -35 37 -50 11 -17
26 -28 40 -28 27 0 123 34 143 51 19 16 18 29 -4 29 -19 0 -104 41 -135 64
-17 13 -15 18 36 84 l54 70 10 -29 c18 -46 58 -40 116 17 50 49 58 50 123 23
17 -7 42 -9 58 -5 37 9 118 86 173 164 25 34 48 62 53 62 4 0 28 -16 52 -37
49 -41 155 -93 243 -118 33 -10 99 -33 147 -51 48 -19 102 -34 120 -34 l33 1
-26 14 c-15 8 -62 24 -105 36 -44 12 -119 39 -167 62 l-88 40 37 36 c20 20
104 120 186 223 l149 188 38 -19 c37 -19 111 -88 111 -104 0 -21 -37 -75 -91
-133 -32 -35 -59 -72 -59 -83 0 -15 7 -12 38 18 22 20 57 48 80 63 29 19 51
46 73 90 30 61 97 158 109 158 3 0 10 -11 16 -25 9 -19 9 -27 -3 -36 -8 -7
-33 -44 -55 -83 -48 -83 -80 -128 -122 -173 -18 -20 -24 -33 -16 -33 21 0 84
72 135 156 50 84 91 134 111 134 6 0 23 9 38 21 26 20 56 20 56 -1 0 -5 -24
-43 -52 -83 -29 -41 -84 -131 -123 -201 -38 -70 -92 -155 -118 -188 -27 -33
-46 -63 -42 -66 3 -3 34 23 68 59 49 50 76 92 126 191 35 70 81 153 102 185
l39 58 0 -53 c0 -43 -6 -62 -32 -100 l-31 -47 30 28 31 29 7 -24 c17 -56 59
-72 114 -43 16 8 60 49 98 91 81 90 98 94 170 42 26 -19 64 -39 83 -45 106
-34 210 -76 245 -102 58 -42 75 -83 76 -177 0 -108 -17 -187 -107 -481 -2 -7
-15 -13 -29 -13 -14 0 -25 -4 -25 -10 0 -15 108 -12 174 5 136 36 241 109 318
222 56 81 135 173 149 173 5 0 9 -7 9 -15 0 -9 11 -27 25 -40 29 -30 77 -33
151 -10 27 8 69 15 93 15 40 0 48 -5 103 -62 104 -109 133 -117 240 -72 81 34
125 29 170 -19 33 -35 88 -57 140 -57 15 0 50 -9 78 -19 29 -11 47 -14 43 -8
-45 78 -134 194 -167 216 -52 36 -125 128 -162 206 -38 80 -116 159 -172 176
-62 18 -105 1 -192 -75 -40 -36 -101 -79 -136 -96 -56 -27 -261 -88 -268 -79
-1 2 -32 49 -68 105 -143 216 -204 261 -454 333 -116 34 -175 98 -275 302 -23
46 -52 99 -66 117 -46 62 -123 84 -188 54z m99 -95 c4 -23 33 -97 65 -164 32
-66 64 -145 70 -174 7 -30 14 -64 17 -76 6 -23 6 -23 -50 6 -47 25 -61 28 -88
21 -18 -6 -42 -20 -53 -33 -11 -13 -36 -44 -56 -68 -40 -49 -98 -85 -122 -76
-9 3 -20 23 -26 44 -10 35 -8 41 29 98 35 54 70 124 70 141 0 19 -35 -27 -68
-90 l-37 -71 -3 44 c-3 38 3 52 42 110 45 66 73 127 63 137 -3 3 -16 -14 -28
-38 -12 -23 -35 -62 -52 -86 -29 -39 -32 -41 -48 -26 -18 16 -24 16 -95 -2
-17 -5 -22 0 -26 20 -5 23 11 42 120 147 151 147 194 179 237 179 31 0 33 -3
39 -43z m1476 -651 c0 -8 18 -36 40 -61 22 -26 59 -74 82 -108 23 -34 63 -86
90 -115 26 -30 48 -57 48 -61 0 -4 -21 -8 -47 -8 -28 -1 -71 -12 -102 -27 -51
-23 -57 -24 -90 -10 -20 8 -61 41 -91 73 -30 32 -70 64 -89 71 -35 14 -69 10
-177 -21 -48 -14 -90 -6 -104 20 -16 30 -2 49 48 67 165 60 209 81 288 134 96
64 104 68 104 46z m-3139 -111 l18 -40 -26 -7 c-15 -4 -48 -28 -74 -54 -41
-40 -50 -45 -64 -34 -27 22 -16 58 42 137 63 85 64 85 104 -2z"/>
<path d="M2690 6331 c0 -26 -55 -71 -88 -72 -23 0 -20 -2 13 -12 31 -10 44
-21 58 -50 19 -38 37 -41 37 -7 0 22 35 50 65 51 15 0 12 4 -13 15 -33 15 -36
18 -46 67 -7 31 -26 37 -26 8z"/>
<path d="M3084 6335 c-9 -23 4 -47 23 -43 22 4 30 38 11 49 -19 13 -28 11 -34
-6z"/>
<path d="M4383 6313 c-14 -29 -27 -40 -58 -50 -22 -6 -32 -12 -23 -12 36 -2
68 -25 76 -54 11 -41 29 -45 37 -7 7 32 30 50 67 51 19 0 18 2 -10 12 -39 15
-52 32 -52 70 0 38 -15 34 -37 -10z"/>
<path d="M2334 6275 c-8 -19 12 -36 33 -28 19 7 12 37 -10 41 -9 2 -20 -4 -23
-13z"/>
<path d="M3891 6156 c-9 -11 -10 -20 -1 -36 13 -24 38 -23 53 1 23 37 -25 68
-52 35z"/>
<path d="M2095 6123 c-14 -74 -51 -121 -106 -132 -43 -9 -50 -31 -11 -31 16 0
41 -9 55 -21 24 -18 32 -38 51 -121 4 -16 13 -28 21 -28 8 0 14 3 13 8 -1 4 1
25 5 48 9 55 40 92 82 100 35 6 49 24 20 24 -25 0 -72 28 -80 47 -4 10 -10 45
-14 77 -7 69 -25 84 -36 29z"/>
<path d="M4684 6145 c-10 -24 12 -42 34 -29 24 16 21 38 -6 42 -13 2 -25 -3
-28 -13z"/>
<path d="M2424 6036 c-12 -31 0 -51 31 -51 27 0 30 3 30 30 0 25 -4 30 -28 33
-17 2 -29 -2 -33 -12z"/>
<path d="M4207 6014 c-8 -8 1 -24 14 -24 5 0 9 7 9 15 0 15 -12 20 -23 9z"/>
<path d="M4500 6005 c0 -9 5 -15 11 -13 6 2 11 8 11 13 0 5 -5 11 -11 13 -6 2
-11 -4 -11 -13z"/>
<path d="M4651 5809 c-15 -50 -43 -79 -76 -79 -14 0 -25 -4 -25 -10 0 -5 9
-10 20 -10 28 0 70 -44 70 -73 0 -13 7 -32 15 -43 14 -18 14 -18 15 4 0 47 27
91 62 100 l33 10 -31 11 c-36 14 -54 46 -54 96 0 47 -14 44 -29 -6z"/>
<path d="M4914 5835 c-8 -19 12 -36 33 -28 19 7 12 37 -10 41 -9 2 -20 -4 -23
-13z"/>
<path d="M1902 5788 c6 -18 28 -21 28 -4 0 9 -7 16 -16 16 -9 0 -14 -5 -12
-12z"/>
<path d="M2655 5759 c-46 -42 -141 -176 -133 -185 3 -2 30 26 61 63 31 37 74
86 96 108 69 67 47 79 -24 14z"/>
<path d="M4387 5734 c-16 -16 -6 -35 16 -32 12 2 22 10 22 18 0 16 -26 25 -38
14z"/>
<path d="M2661 5674 c-31 -40 -25 -52 9 -19 17 16 30 32 30 37 0 16 -19 7 -39
-18z"/>
<path d="M3516 5653 c-12 -12 -37 -76 -32 -81 6 -6 46 59 46 76 0 14 -4 15
-14 5z"/>
<path d="M2680 5615 c-7 -9 -10 -18 -7 -22 8 -7 37 15 37 28 0 14 -16 11 -30
-6z"/>
<path d="M3372 5525 c-34 -47 -57 -85 -53 -85 9 0 103 116 120 148 27 51 -11
16 -67 -63z"/>
<path d="M3056 5492 c-48 -82 -56 -103 -32 -83 20 17 96 135 96 149 0 29 -21
6 -64 -66z"/>
<path d="M3852 5500 c-7 -19 -35 -64 -62 -100 -124 -160 -210 -295 -210 -330
0 -25 19 -6 41 42 28 59 79 135 154 228 62 77 98 143 93 173 -3 18 -6 16 -16
-13z"/>
<path d="M3373 5418 c-86 -128 -86 -128 -74 -128 13 0 161 203 161 221 0 26
-26 -2 -87 -93z"/>
<path d="M2240 5493 c0 -13 89 -96 140 -130 50 -34 192 -107 228 -118 48 -14
19 12 -44 39 -36 16 -115 65 -176 110 -61 45 -119 87 -129 95 -11 7 -19 9 -19
4z"/>
<path d="M3491 5481 c-14 -26 -30 -99 -23 -106 5 -5 29 50 48 108 7 23 -13 22
-25 -2z"/>
<path d="M3717 5400 c-38 -30 -112 -137 -142 -204 -38 -85 -30 -101 11 -21 39
76 67 117 127 182 44 48 47 76 4 43z"/>
<path d="M2500 5391 c0 -8 153 -82 198 -96 40 -12 23 4 -38 35 -83 42 -160 71
-160 61z"/>
<path d="M2336 5299 c33 -36 104 -73 116 -61 9 9 1 16 -28 28 -21 9 -51 25
-66 35 -35 25 -46 24 -22 -2z"/>
<path d="M3787 5283 c-13 -23 -38 -115 -34 -126 5 -12 42 64 53 109 6 22 -9
35 -19 17z"/>
<path d="M1856 5248 c-9 -12 -16 -39 -16 -59 0 -56 -26 -117 -70 -165 -60 -66
-52 -88 30 -77 l43 6 -6 -43 c-6 -47 -45 -102 -98 -138 -21 -15 -34 -32 -34
-45 0 -20 5 -22 63 -21 53 1 62 -2 58 -15 -3 -9 -8 -32 -11 -51 -17 -81 -65
-142 -125 -157 -28 -7 -35 -14 -35 -34 0 -20 6 -25 32 -27 19 -2 53 6 80 19
26 13 53 23 58 23 6 1 10 -55 11 -147 1 -127 4 -150 19 -167 23 -25 37 -25 59
-1 16 18 17 35 11 176 l-7 156 51 -27 c29 -14 72 -29 96 -32 41 -4 45 -3 45
17 0 14 -17 32 -54 56 -58 39 -103 96 -129 163 -9 23 -17 44 -17 46 0 2 23 -4
50 -15 103 -39 121 -10 40 67 -51 49 -85 105 -96 163 l-7 33 51 -7 c69 -9 76
8 28 74 -51 69 -76 129 -76 182 0 59 -21 81 -44 47z"/>
<path d="M4535 5194 c-44 -37 -84 -73 -88 -81 -14 -24 0 -26 30 -5 39 28 160
152 148 152 -6 0 -46 -30 -90 -66z"/>
<path d="M4413 5198 c-21 -17 -69 -62 -108 -98 -115 -111 -170 -145 -274 -176
-8 -3 -11 -7 -8 -10 12 -13 126 31 187 71 68 46 274 245 253 245 -7 0 -29 -14
-50 -32z"/>
<path d="M2510 5211 c0 -12 79 -31 86 -20 6 10 -4 14 -53 23 -18 3 -33 2 -33
-3z"/>
<path d="M4605 5184 c-38 -49 -26 -52 20 -4 26 27 34 40 23 40 -8 0 -28 -16
-43 -36z"/>
<path d="M4857 5173 c-3 -10 -8 -40 -12 -68 -9 -62 -27 -98 -77 -153 -33 -36
-37 -46 -27 -58 10 -12 24 -14 61 -9 43 6 48 5 48 -12 0 -11 -12 -43 -26 -71
-19 -38 -38 -59 -69 -78 -45 -26 -62 -51 -46 -67 10 -10 69 -12 100 -2 26 8
27 -10 6 -83 -20 -66 -65 -119 -115 -132 -43 -11 -56 -32 -35 -54 22 -22 111
2 158 42 16 14 17 7 17 -134 0 -159 9 -194 49 -194 38 0 44 24 42 180 -1 83 0
150 2 150 2 0 23 -10 47 -21 63 -31 92 -37 117 -28 33 12 20 34 -43 74 -56 36
-117 115 -130 169 -6 26 -5 28 12 22 56 -22 104 -30 115 -19 15 15 -2 45 -35
63 -38 20 -97 111 -103 158 l-6 41 52 -6 c46 -5 51 -4 51 14 0 11 -14 38 -31
59 -47 59 -69 109 -69 154 0 47 -14 80 -35 80 -7 0 -16 -8 -18 -17z"/>
<path d="M2070 5062 c8 -5 51 -15 95 -22 171 -26 323 -62 380 -89 33 -16 89
-54 125 -85 38 -33 108 -78 168 -108 l104 -51 -86 -28 c-90 -30 -278 -118
-308 -146 -20 -18 -24 -43 -7 -43 5 0 63 24 127 54 243 112 407 150 647 151
208 0 285 -9 285 -34 0 -26 -47 -46 -200 -85 -179 -46 -201 -56 -269 -126
l-58 -60 -202 0 c-127 0 -210 -4 -223 -11 -18 -10 -56 -82 -148 -287 l-29 -62
-38 22 c-31 19 -56 23 -140 26 -98 4 -103 3 -127 -21 -23 -23 -26 -35 -26 -92
0 -117 39 -155 157 -155 l68 0 -50 -29 c-73 -42 -174 -153 -213 -234 -17 -37
-32 -74 -32 -81 0 -7 -11 -19 -25 -26 -46 -24 -55 -64 -55 -234 0 -95 -4 -156
-10 -156 -20 0 -43 -53 -46 -107 -2 -38 -9 -63 -22 -77 -11 -11 -28 -37 -38
-56 -18 -32 -19 -62 -19 -375 0 -386 -3 -370 89 -468 65 -70 108 -85 254 -91
67 -3 126 -8 132 -11 20 -13 -1 -23 -70 -36 -39 -7 -78 -18 -88 -26 -16 -12
-15 -14 8 -32 58 -46 243 -66 390 -42 37 6 84 4 145 -5 117 -17 691 -13 817 6
78 12 89 12 112 -4 76 -49 -5 -82 -268 -108 -176 -17 -240 -19 -516 -12 -487
11 -467 11 -487 -9 -17 -17 -17 -19 1 -33 14 -9 46 -14 105 -13 47 0 115 -6
151 -15 36 -9 102 -16 147 -16 80 0 133 -11 133 -28 0 -12 -44 -31 -91 -38
-47 -8 -49 -26 -6 -58 29 -22 6 -20 477 -42 194 -9 669 12 719 32 54 22 55 49
2 65 -59 17 -495 6 -586 -16 -101 -24 -209 -25 -232 -2 -43 42 37 79 212 96
61 6 274 13 475 16 618 7 940 49 940 120 0 18 -37 20 -107 5 -43 -9 -245 -29
-250 -25 -1 0 9 18 22 38 31 45 34 81 5 72 -17 -6 -19 -3 -14 23 6 31 -7 49
-28 36 -25 -16 -92 -3 -119 22 -26 25 -28 25 -143 18 -81 -5 -116 -4 -116 4 0
23 30 27 205 27 259 1 526 15 550 29 11 7 38 17 60 24 54 15 109 63 134 115
20 41 21 59 21 380 0 363 -1 371 -53 433 -22 25 -27 42 -27 83 0 42 -5 56 -30
84 l-30 35 0 160 0 161 -30 34 c-16 19 -30 42 -30 51 0 59 -100 220 -172 277
-49 38 -49 39 -21 39 29 0 68 21 90 50 8 9 12 49 13 102 0 112 -7 118 -136
118 -75 0 -98 -4 -136 -23 l-46 -23 -78 165 c-42 91 -85 175 -96 186 -18 19
-35 20 -356 25 -335 5 -337 5 -386 30 -28 14 -52 31 -54 38 -6 20 55 69 110
88 34 11 66 32 95 62 l45 45 71 -23 c40 -12 128 -47 197 -77 69 -30 131 -57
138 -60 6 -3 12 1 12 9 0 20 -119 95 -214 135 -44 19 -126 47 -181 62 l-100
29 55 11 c125 25 193 32 353 38 168 6 207 15 121 27 -123 16 -331 0 -493 -40
-81 -20 -117 -24 -159 -19 -93 12 -322 6 -417 -9 -87 -15 -91 -15 -157 8 -91
32 -140 62 -237 145 -94 82 -137 106 -223 126 -134 31 -440 66 -408 47z m2161
-729 c13 -14 221 -465 216 -469 -2 -3 -53 91 -112 208 -59 117 -116 222 -126
233 -19 20 -34 20 -756 23 -628 2 -739 0 -758 -12 -13 -9 -68 -108 -135 -245
-63 -127 -118 -231 -122 -231 -5 0 -5 8 1 18 5 9 52 114 106 232 53 118 103
224 109 235 13 20 23 20 791 18 428 -1 782 -6 786 -10z m57 -260 l103 -203
-893 0 c-491 0 -917 -3 -946 -7 l-54 -6 106 212 106 211 737 -2 738 -3 103
-202z m-1873 -77 l29 -24 -23 -51 -24 -51 -87 0 c-53 0 -91 5 -98 12 -7 7 -12
39 -12 75 l0 63 93 0 c82 0 95 -3 122 -24z m2285 -55 c0 -82 -11 -91 -111 -91
l-79 0 -26 52 -26 52 26 23 c24 20 37 23 122 23 l94 0 0 -59z m-251 -142 c147
-34 273 -150 326 -300 12 -34 12 -39 -3 -43 -9 -3 -608 -5 -1329 -5 -1180 0
-1313 2 -1313 16 0 32 66 138 121 192 31 31 83 71 116 89 119 63 77 61 1103
61 596 0 951 -3 979 -10z m-2223 -479 l-31 -80 -72 0 -73 0 0 64 c0 89 9 96
119 96 l88 0 -31 -80z m294 61 c0 -10 21 -60 46 -112 26 -52 57 -118 70 -146
l23 -53 -163 0 -163 0 -47 70 c-25 38 -46 78 -46 87 0 10 14 53 31 96 l31 77
109 0 c100 0 109 -2 109 -19z m1814 11 c3 -5 -30 -78 -72 -163 l-77 -154 -738
-3 -738 -2 -75 156 c-41 86 -74 160 -74 165 0 11 1767 12 1774 1z m304 -75
c17 -45 32 -87 32 -93 0 -6 -23 -43 -50 -82 l-51 -72 -164 0 c-91 0 -165 2
-165 4 0 3 32 71 70 152 39 81 70 153 70 160 0 11 24 14 113 14 l112 0 33 -83z
m194 66 c14 -12 18 -31 18 -80 l0 -63 -69 0 c-66 0 -69 1 -79 28 -5 15 -19 51
-31 80 l-21 52 82 0 c62 0 86 -4 100 -17z m-2611 -221 c14 -20 34 -49 44 -64
l17 -28 -116 0 -116 0 0 65 0 65 73 0 c72 0 72 -1 98 -38z m2629 -27 l0 -65
-110 0 c-60 0 -110 3 -110 6 0 3 19 32 41 65 l42 59 68 0 69 0 0 -65z m39
-139 c15 -14 21 -29 19 -50 l-3 -31 -1455 0 c-1401 0 -1455 1 -1458 18 -6 32
8 68 31 77 13 5 620 8 1433 7 1384 -2 1412 -2 1433 -21z m19 -208 c-7 -97 -38
-167 -99 -222 -66 -59 -119 -76 -241 -76 l-98 0 0 106 c0 103 -1 106 -29 135
l-29 29 -145 0 -145 0 -31 -29 c-31 -29 -31 -29 -31 -135 l0 -106 -605 0 -605
0 0 95 c0 107 -14 150 -56 165 -14 6 -86 10 -159 10 -134 0 -135 0 -167 -29
l-33 -29 0 -107 0 -107 -120 4 c-100 3 -127 7 -163 26 -102 54 -162 157 -162
277 l0 65 1461 0 1462 0 -5 -72z m82 -351 c0 -255 -3 -314 -15 -344 -20 -48
-41 -71 -89 -95 -33 -17 -55 -19 -166 -16 -126 3 -129 4 -167 34 -66 53 -73
78 -73 257 0 127 3 157 14 157 11 0 14 -33 15 -172 2 -137 5 -178 17 -196 22
-34 94 -62 173 -69 61 -5 71 -3 87 15 14 17 21 19 37 10 30 -16 45 6 22 32
-20 22 -46 25 -77 9 -18 -9 -24 -8 -35 6 -11 16 -8 20 28 36 37 17 42 17 75 2
34 -17 37 -17 80 6 43 23 55 43 34 56 -6 4 -25 -2 -43 -13 -31 -19 -33 -19
-72 -1 -39 17 -41 17 -69 -1 -34 -21 -71 -11 -80 23 -7 28 -3 30 26 17 20 -10
31 -8 57 8 33 20 33 20 66 0 33 -19 34 -19 75 2 69 35 69 76 0 45 -39 -17 -41
-17 -74 0 -34 18 -36 18 -68 1 -32 -17 -36 -17 -66 -2 -20 11 -32 24 -32 37 0
16 4 19 18 14 38 -16 63 -17 88 0 23 15 27 15 49 1 14 -9 31 -16 40 -16 27 0
95 40 95 55 0 19 -23 19 -61 -1 -28 -14 -33 -14 -54 0 -30 20 -48 20 -86 1
-27 -14 -32 -14 -59 2 -20 11 -30 25 -30 40 0 23 1 23 32 7 29 -15 34 -15 66
1 33 15 37 15 69 -2 33 -17 34 -17 78 7 25 14 45 30 45 37 0 22 -21 25 -54 5
-32 -19 -33 -19 -70 0 -37 19 -38 19 -69 0 -25 -14 -38 -16 -56 -9 -21 10 -18
13 39 39 58 26 64 27 91 12 28 -14 33 -13 72 8 44 25 62 58 30 58 -10 0 -27
-7 -37 -15 -21 -16 -56 -20 -56 -7 0 13 41 48 78 66 34 18 42 40 17 50 -14 5
-14 9 0 35 8 17 15 54 16 83 l1 53 13 -30 c11 -23 14 -99 15 -338z m-3054 311
c-1 -24 4 -54 11 -68 16 -31 17 -51 1 -47 -6 1 -13 -5 -15 -13 -2 -9 17 -27
52 -48 74 -44 77 -84 4 -46 -31 15 -59 13 -59 -5 0 -5 20 -21 45 -35 43 -26
46 -26 75 -11 29 15 34 15 73 -3 23 -11 51 -23 62 -27 19 -6 19 -7 -4 -19 -21
-12 -29 -11 -57 6 -30 18 -33 18 -68 1 -34 -16 -38 -16 -72 0 -67 33 -76 -7
-9 -43 45 -25 45 -25 80 -6 34 19 36 19 70 0 34 -18 37 -18 65 -2 30 17 30 17
30 -7 0 -17 -9 -29 -30 -40 -27 -14 -33 -14 -60 0 -37 19 -55 19 -85 -1 -23
-15 -27 -15 -57 4 -35 21 -58 19 -58 -4 0 -15 69 -54 95 -54 9 0 27 7 40 16
23 15 27 15 51 -1 25 -16 48 -16 87 0 31 13 17 -37 -15 -55 -25 -14 -31 -13
-63 5 -36 18 -37 19 -71 0 -34 -18 -36 -18 -70 0 -25 13 -38 15 -45 8 -16 -16
-4 -30 42 -54 40 -20 41 -20 74 -1 33 20 33 20 66 0 26 -16 37 -18 57 -8 13 6
27 9 29 6 9 -9 -7 -41 -27 -54 -18 -11 -26 -10 -54 7 -32 20 -33 20 -70 2 -37
-19 -38 -19 -71 1 -34 20 -55 18 -55 -5 0 -7 20 -23 45 -37 43 -24 45 -24 81
-7 34 17 38 17 75 0 43 -20 46 -25 25 -42 -11 -9 -20 -9 -35 -2 -29 16 -49 13
-72 -10 -20 -20 -20 -22 -4 -31 11 -7 21 -6 28 1 15 15 27 14 27 -4 0 -33 126
-30 207 5 72 32 78 50 78 242 0 153 2 168 18 168 15 0 17 -14 17 -152 0 -176
-12 -215 -76 -264 -35 -27 -44 -29 -152 -32 -143 -5 -173 1 -219 41 -62 54
-63 62 -63 409 0 172 3 323 6 336 10 37 23 25 20 -20z m854 -48 c17 -17 20
-33 20 -115 0 -84 -2 -95 -17 -95 -16 0 -18 9 -16 72 2 119 -18 138 -148 138
-63 0 -81 -3 -86 -15 -3 -9 -4 -17 -2 -19 3 -3 48 -7 181 -16 3 0 8 -36 10
-80 l3 -80 -127 0 -128 0 0 97 c0 134 -2 133 162 133 115 0 130 -2 148 -20z
m1618 4 c20 -14 22 -23 22 -115 0 -54 -4 -99 -9 -99 -5 0 -7 28 -4 65 6 76 -7
117 -43 134 -14 6 -61 11 -105 11 -63 0 -81 -3 -86 -15 -9 -24 1 -28 79 -28
102 1 106 -2 110 -92 l3 -75 -137 0 -138 0 0 95 c0 133 2 135 163 135 95 0
128 -4 145 -16z m-1900 -335 c12 -17 67 -18 938 -17 895 0 927 1 942 19 9 11
20 19 24 19 5 0 8 -42 8 -94 l0 -94 -82 -35 c-112 -48 -153 -55 -180 -31 -17
16 -35 19 -127 17 -58 -1 -151 -8 -206 -16 -70 -10 -155 -13 -282 -9 -188 5
-235 -2 -247 -34 -18 -46 234 -65 392 -30 81 18 261 21 277 4 23 -23 -50 -85
-139 -118 -50 -19 -60 -50 -21 -68 102 -47 -83 -55 -815 -36 -190 5 -351 13
-358 18 -18 11 1 33 45 51 58 25 258 45 418 42 157 -2 184 4 205 43 27 51 -14
63 -222 60 -199 -3 -198 -3 -198 18 0 44 73 79 192 92 51 6 116 15 143 20 28
6 93 14 145 20 52 5 140 16 195 25 67 10 162 15 287 14 103 0 192 2 198 6 38
23 -36 55 -133 58 -40 0 -173 -5 -297 -12 -350 -21 -592 -24 -717 -11 -62 7
-124 9 -138 6 -36 -9 -42 -47 -15 -84 39 -52 23 -65 -73 -60 -71 3 -90 8 -139
36 l-58 33 0 90 c0 93 6 102 38 58z m1911 -596 c-7 -10 -15 -20 -16 -22 -2 -2
-3 5 -3 17 0 14 6 22 16 22 14 0 15 -3 3 -17z m-61 -63 c2 -39 -1 -70 -5 -71
-4 0 -17 -2 -28 -4 -11 -2 -78 -5 -150 -6 -104 -1 -130 2 -130 12 0 9 21 19
55 26 98 22 192 56 198 72 9 26 24 41 41 41 13 0 17 -13 19 -70z"/>
<path d="M2945 4250 c-16 -25 13 -30 181 -30 167 0 174 1 174 20 0 19 -7 20
-174 20 -106 0 -177 -4 -181 -10z"/>
<path d="M3334 4249 c-3 -6 -2 -15 2 -19 5 -5 167 -11 361 -12 l351 -3 27 -25
c15 -14 40 -51 56 -82 28 -55 59 -77 59 -42 0 9 -16 47 -36 85 -59 111 -50
109 -467 109 -238 0 -348 -3 -353 -11z"/>
<path d="M4187 4007 c-6 -17 23 -79 39 -84 21 -7 25 29 7 60 -21 35 -38 44
-46 24z"/>
<path d="M2232 3984 c3 -15 16 -20 68 -25 36 -4 74 -8 84 -10 22 -5 30 10 16
31 -6 11 -32 16 -91 19 -74 3 -81 2 -77 -15z"/>
<path d="M4505 3964 c-20 -20 -14 -40 11 -35 10 2 48 6 84 10 51 5 66 10 68
24 3 15 -6 17 -72 17 -55 0 -79 -4 -91 -16z"/>
<path d="M2307 3513 c-4 -3 -7 -12 -7 -20 0 -11 137 -13 781 -13 738 0 780 1
777 18 -3 16 -49 17 -774 20 -424 1 -774 -1 -777 -5z"/>
<path d="M3895 3510 c-16 -26 14 -30 236 -30 214 0 230 1 227 18 -3 15 -23 17
-230 20 -146 1 -229 -1 -233 -8z"/>
<path d="M4400 3500 c0 -20 5 -21 108 -18 87 2 107 6 107 18 0 12 -20 16 -107
18 -103 3 -108 2 -108 -18z"/>
<path d="M2163 3329 c-36 -84 -6 -109 34 -28 27 55 29 79 5 79 -12 0 -25 -16
-39 -51z"/>
<path d="M2323 3355 c-8 -23 1 -28 58 -32 28 -1 60 -10 72 -18 12 -8 45 -61
72 -117 28 -56 56 -104 62 -106 30 -9 21 32 -29 134 -48 97 -58 110 -97 131
-52 27 -128 32 -138 8z"/>
<path d="M2659 3356 c-9 -20 -5 -41 26 -122 20 -55 41 -105 47 -111 14 -18
329 -18 346 -1 19 19 15 47 -19 133 -51 135 -33 125 -224 125 -165 0 -165 0
-176 -24z"/>
<path d="M3107 3373 c-12 -11 -7 -46 22 -148 l28 -100 291 -3 c270 -2 291 -1
296 15 32 112 56 217 52 229 -4 12 -60 14 -344 14 -186 0 -342 -3 -345 -7z"/>
<path d="M3890 3360 c-6 -11 -26 -61 -46 -112 -28 -75 -33 -97 -25 -116 11
-22 12 -22 183 -20 l173 3 41 105 c63 158 61 160 -152 160 -153 0 -164 -1
-174 -20z"/>
<path d="M4440 3348 c-40 -21 -49 -33 -98 -132 -50 -102 -59 -143 -29 -134 6
2 35 50 62 106 28 56 59 108 71 116 11 8 44 17 73 20 60 5 66 9 58 31 -9 23
-84 19 -137 -7z"/>
<path d="M4695 3377 c-9 -21 30 -122 48 -125 20 -4 22 15 5 72 -17 61 -41 85
-53 53z"/>
<path d="M2304 2809 c-18 -30 19 -33 557 -31 298 1 544 4 547 6 2 3 2 12 -1
21 -6 13 -69 15 -551 15 -382 0 -547 -3 -552 -11z"/>
<path d="M3553 2805 c-3 -9 -3 -18 0 -21 11 -11 1087 -8 1098 3 31 31 -5 33
-547 33 -482 0 -545 -2 -551 -15z"/>
<path d="M2006 2781 c-17 -26 63 -162 120 -206 44 -34 107 -61 162 -70 37 -6
42 -5 42 13 0 15 -9 21 -37 27 -45 8 -120 45 -160 79 -27 23 -73 102 -87 149
-6 18 -31 23 -40 8z"/>
<path d="M4853 2773 c-20 -59 -45 -103 -77 -135 -43 -44 -80 -65 -156 -88 -55
-18 -74 -35 -46 -46 21 -8 121 22 165 50 74 47 150 155 151 214 0 26 -28 30
-37 5z"/>
<path d="M2886 2628 c-9 -35 -7 -87 4 -109 10 -18 27 -19 560 -19 533 0 550 1
560 19 13 25 13 87 0 112 -10 18 -27 19 -564 19 l-554 0 -6 -22z"/>
<path d="M4391 5021 c-6 -11 -11 -35 -11 -53 -1 -46 -31 -107 -74 -147 -57
-55 -49 -66 46 -61 l36 1 -10 -40 c-12 -48 -68 -116 -102 -125 -29 -7 -45 -44
-25 -58 14 -9 56 -6 97 7 22 7 22 6 22 -89 l0 -96 30 0 c38 0 48 22 51 111 2
35 4 67 6 70 1 4 20 -2 40 -12 61 -31 113 -21 85 16 -4 6 -24 23 -44 38 -42
31 -84 97 -94 146 l-7 33 50 -7 c58 -8 73 4 49 38 -77 105 -89 129 -95 184 -7
62 -30 83 -50 44z"/>
<path d="M5429 4889 c-6 -12 -8 -30 -5 -42 9 -36 -20 -82 -100 -155 -93 -85
-90 -96 22 -87 40 4 74 2 78 -3 9 -16 -34 -90 -76 -128 -22 -20 -65 -47 -94
-61 -51 -23 -81 -53 -67 -67 11 -11 66 -6 146 13 42 10 77 15 77 12 0 -11 -32
-55 -69 -95 -46 -49 -91 -77 -166 -105 -66 -25 -85 -37 -85 -56 0 -31 109 -23
233 19 l67 22 0 -30 c0 -69 -65 -130 -210 -199 -89 -42 -102 -52 -97 -77 5
-32 172 12 284 75 25 14 48 23 50 21 11 -10 -12 -80 -38 -115 -49 -68 -144
-122 -266 -151 -62 -14 -82 -32 -62 -56 12 -14 29 -16 119 -11 58 3 132 13
164 22 32 8 61 13 64 11 2 -3 -4 -22 -14 -42 -26 -51 -92 -94 -231 -148 -141
-55 -148 -59 -140 -80 11 -27 84 -24 261 10 103 20 131 22 138 12 11 -18 10
-106 -2 -208 -16 -133 -14 -283 3 -316 37 -71 84 -80 108 -21 16 38 19 235 5
430 -5 75 -5 127 0 127 5 0 63 -13 129 -30 160 -40 275 -38 275 4 0 20 -12 26
-87 42 -130 27 -227 86 -274 168 -35 61 -38 81 -10 66 67 -35 309 -66 333 -42
18 18 1 28 -120 76 -129 50 -201 92 -231 134 -18 27 -38 92 -27 92 3 0 38 -11
78 -24 196 -66 351 -29 165 39 -76 27 -143 70 -182 117 -30 36 -61 95 -54 103
3 2 32 -6 64 -20 69 -27 183 -45 215 -33 42 15 19 41 -52 58 -36 9 -84 28
-106 43 -41 29 -85 99 -97 155 -6 31 -6 32 20 22 33 -13 155 -13 175 0 21 13
-10 44 -62 59 -78 24 -151 90 -160 146 -3 18 3 20 75 22 43 1 85 4 92 7 25 9
5 34 -51 66 -62 35 -114 105 -114 155 0 64 -65 103 -91 54z"/>
<path d="M1372 4868 c-7 -7 -12 -27 -12 -45 0 -47 -30 -100 -89 -158 -28 -27
-51 -55 -51 -61 0 -17 42 -25 79 -14 34 9 61 4 61 -11 0 -44 -88 -144 -155
-176 -37 -18 -51 -41 -36 -56 9 -9 38 -5 149 20 30 7 28 -5 -10 -62 -34 -51
-127 -119 -179 -130 -33 -7 -55 -44 -35 -57 21 -14 121 8 220 48 17 7 19 4 14
-34 -4 -23 -17 -55 -30 -71 -24 -30 -123 -101 -174 -123 -34 -15 -44 -26 -44
-52 0 -16 5 -18 41 -12 46 7 154 54 199 86 l30 21 0 -28 c0 -84 -90 -173 -214
-214 -79 -26 -102 -44 -85 -66 21 -24 185 -11 271 22 15 6 16 3 8 -27 -14 -50
-79 -101 -192 -151 -56 -24 -107 -52 -113 -61 -25 -41 56 -43 207 -5 42 10 86
19 97 19 21 0 21 -2 24 -67 1 -23 -14 -259 -19 -298 -5 -48 14 -146 33 -167 9
-10 26 -18 37 -16 47 7 56 88 42 376 -7 147 -6 172 6 172 8 0 52 -11 98 -25
83 -25 183 -33 208 -16 30 19 8 44 -50 57 -112 26 -196 86 -234 169 -13 27
-22 50 -20 52 1 2 29 -6 62 -18 39 -13 88 -21 143 -22 106 -2 117 13 34 49
-183 81 -235 119 -255 185 -6 22 -9 41 -7 43 2 2 37 -7 76 -20 71 -24 160 -33
182 -20 13 8 -3 46 -20 46 -26 0 -121 55 -156 90 -37 36 -82 115 -72 125 3 2
32 -6 64 -20 64 -25 145 -38 165 -25 27 17 5 43 -48 56 -28 8 -64 21 -77 30
-30 20 -69 83 -83 135 l-10 36 81 -1 c69 -1 82 2 85 16 2 12 -15 25 -63 48
-67 32 -106 75 -120 131 l-7 26 70 -5 c97 -6 109 20 31 68 -48 29 -84 87 -94
150 -10 65 -34 87 -63 58z"/>
<path d="M2271 4781 c-6 -4 -16 -34 -21 -66 -11 -65 -28 -97 -78 -141 -46 -40
-36 -56 32 -53 49 3 51 2 47 -22 -8 -55 -39 -92 -110 -131 -74 -41 -5 -76 83
-42 13 5 16 -7 18 -83 3 -82 5 -88 25 -91 32 -5 52 33 55 106 1 34 5 62 9 62
4 0 23 -7 42 -15 47 -19 87 -20 87 0 0 8 -6 19 -12 24 -65 51 -104 92 -119
126 -28 62 -26 69 24 62 48 -7 74 4 61 24 -4 8 -25 34 -45 59 -45 53 -59 88
-59 140 0 38 -16 55 -39 41z"/>
<path d="M4394 4235 c-8 -20 28 -90 46 -90 24 0 24 48 0 78 -24 30 -38 34 -46
12z"/>
<path d="M4512 4190 c-8 -20 -8 -32 -1 -36 14 -8 25 5 33 39 9 38 -19 36 -32
-3z"/>
<path d="M4587 4165 c-7 -16 8 -29 23 -20 15 9 12 35 -4 35 -8 0 -16 -7 -19
-15z"/>
<path d="M4834 3769 c-3 -6 5 -22 19 -36 32 -32 57 -25 57 17 0 31 -8 38 -27
19 -8 -8 -13 -8 -17 0 -9 14 -23 14 -32 0z"/>
<path d="M1871 3693 c-16 -22 -20 -24 -21 -10 0 20 -25 23 -33 4 -3 -7 -3 -34
0 -60 5 -40 9 -48 31 -54 21 -5 32 1 64 36 39 41 45 67 16 65 -10 -1 -13 6
-10 22 6 34 -21 31 -47 -3z"/>
<path d="M5034 3294 c-6 -22 -8 -24 -16 -10 -5 9 -16 16 -25 16 -12 0 -14 -6
-8 -27 9 -39 26 -52 58 -46 22 4 27 11 27 33 0 59 -24 81 -36 34z"/>
<path d="M1902 3274 c-5 -11 -7 -26 -4 -34 4 -13 3 -13 -11 -2 -25 21 -37 6
-25 -31 15 -43 26 -56 46 -53 13 2 18 15 20 61 3 62 -9 90 -26 59z"/>
<path d="M1530 2985 c0 -35 23 -86 49 -109 11 -11 21 -25 21 -33 0 -27 39 -12
74 29 45 53 47 73 6 65 -28 -6 -30 -4 -30 23 0 23 -5 30 -19 30 -11 0 -21 -9
-25 -22 -7 -22 -8 -22 -23 10 -20 40 -53 44 -53 7z"/>
<path d="M1747 2636 c-4 -9 -14 -12 -26 -9 -17 4 -19 1 -16 -17 l4 -23 -22 22
c-20 18 -47 28 -47 17 0 -15 35 -77 59 -106 28 -33 30 -34 55 -20 25 13 27 17
24 79 -3 61 -19 90 -31 57z"/>
<path d="M5301 2604 c-12 -15 -21 -32 -21 -38 0 -6 -6 0 -13 13 -14 27 -43 49
-53 39 -12 -12 6 -57 34 -88 21 -23 33 -28 54 -24 34 8 95 81 80 96 -8 8 -15
8 -26 -1 -11 -9 -14 -8 -12 5 2 28 -20 27 -43 -2z"/>
<path d="M1645 2330 c-5 -8 -7 -34 -6 -59 l2 -46 -33 33 c-56 53 -64 38 -21
-44 26 -51 50 -68 109 -80 28 -5 32 -2 47 28 23 48 26 92 6 96 -9 1 -20 -8
-27 -23 -16 -35 -29 -24 -37 30 -9 54 -28 85 -40 65z"/>
<path d="M5236 2308 c-3 -13 -6 -39 -6 -59 0 -20 -7 -53 -16 -74 -24 -59 -1
-90 32 -41 22 35 31 196 11 196 -8 0 -17 -10 -21 -22z"/>
<path d="M5160 2263 c0 -67 9 -95 29 -91 12 3 15 13 13 46 -6 90 -42 128 -42
45z"/>
<path d="M1625 1171 c-35 -5 -40 -9 -40 -33 -1 -23 4 -28 22 -28 l23 0 -1
-345 0 -345 -25 0 c-20 0 -24 -5 -24 -30 l0 -30 75 0 75 0 0 30 c0 23 -5 30
-19 30 -25 0 -32 43 -27 180 5 110 19 174 31 135 4 -11 30 -85 59 -165 44
-122 50 -146 37 -150 -9 -3 -17 -17 -19 -32 l-3 -28 82 0 c70 0 80 2 75 16 -3
9 -6 22 -6 30 0 8 -10 14 -23 14 -25 0 -24 -3 -109 234 -21 60 -46 121 -54
135 -14 24 -13 32 15 111 47 129 92 204 124 208 24 3 27 8 27 39 l0 36 -52 -7
c-29 -3 -63 -6 -75 -6 -19 0 -23 -6 -23 -30 0 -20 5 -30 16 -30 12 0 9 -11
-15 -54 -16 -30 -41 -86 -55 -123 l-25 -68 0 123 c-1 113 0 122 18 122 22 0
32 20 24 49 -6 22 -25 24 -108 12z"/>
<path d="M2180 1151 c0 -21 5 -31 15 -31 10 0 13 -8 10 -27 -2 -16 -13 -82
-24 -148 -36 -215 -50 -308 -62 -418 -12 -102 -14 -107 -36 -107 -19 0 -23 -5
-23 -30 l0 -30 75 0 75 0 0 30 c0 23 -4 30 -20 30 -24 0 -25 8 -5 155 8 61 15
111 15 113 0 1 20 2 45 2 51 0 49 5 65 -130 14 -122 13 -140 -8 -140 -13 0
-18 -8 -17 -30 l0 -30 75 0 75 0 0 30 c1 25 -3 30 -22 30 -27 0 -27 0 -48 180
-18 155 -51 379 -74 495 l-16 80 -47 3 c-47 3 -48 3 -48 -27z m88 -286 c17
-114 17 -115 -18 -115 -28 0 -30 3 -30 35 0 50 23 176 30 167 4 -4 12 -43 18
-87z"/>
<path d="M2550 1151 c0 -24 4 -31 20 -31 19 0 20 -7 20 -127 0 -71 2 -228 3
-351 l2 -222 -22 0 c-19 0 -23 -6 -23 -30 l0 -30 75 0 75 0 0 30 c0 23 -5 30
-19 30 -11 0 -21 9 -25 23 -8 35 -6 497 3 497 4 0 16 -30 26 -67 25 -95 35
-113 59 -113 35 0 42 11 68 99 l25 85 6 -184 c4 -101 7 -218 7 -262 0 -77 0
-78 -25 -78 -21 0 -25 -5 -25 -30 l0 -30 75 0 75 0 0 30 c0 23 -5 30 -19 30
-23 0 -24 28 -29 458 -3 238 -3 242 18 242 16 0 20 6 20 31 0 30 0 30 -52 27
l-51 -3 -28 -100 c-15 -55 -32 -121 -39 -147 -7 -27 -15 -48 -19 -48 -3 0 -26
67 -51 148 l-46 147 -52 3 c-52 3 -52 3 -52 -27z"/>
<path d="M3690 1151 c0 -21 5 -31 15 -31 10 0 13 -8 10 -27 -2 -16 -13 -82
-24 -148 -36 -215 -50 -308 -62 -418 -12 -102 -14 -107 -36 -107 -19 0 -23 -5
-23 -30 l0 -30 75 0 75 0 0 30 c0 23 -4 30 -20 30 -24 0 -25 8 -5 155 8 61 15
111 15 113 0 1 20 2 45 2 51 0 49 5 65 -130 15 -124 14 -140 -9 -140 -15 0
-19 -7 -19 -30 l1 -30 80 0 c68 0 78 2 73 16 -3 9 -6 22 -6 30 0 8 -9 14 -20
14 -23 0 -24 3 -45 180 -18 158 -50 370 -73 490 l-17 85 -47 3 c-47 3 -48 3
-48 -27z m86 -278 c20 -116 20 -123 -16 -123 -28 0 -30 3 -30 35 0 41 22 176
28 170 2 -2 10 -39 18 -82z"/>
<path d="M4060 1121 c0 -55 2 -59 25 -63 30 -6 35 -2 35 34 0 27 2 28 50 28
l49 0 0 -350 0 -350 -24 0 c-21 0 -25 -5 -25 -30 l0 -30 75 0 75 0 0 30 c0 23
-4 30 -20 30 -20 0 -20 7 -20 350 l0 350 45 0 c45 0 45 0 45 -35 0 -32 2 -35
30 -35 l30 0 0 65 0 65 -185 0 -185 0 0 -59z"/>
<path d="M4598 1173 c-46 -4 -48 -6 -48 -34 0 -25 4 -29 26 -29 l26 0 -3 -345
-4 -345 -22 0 c-19 0 -23 -6 -23 -30 l0 -30 75 0 75 0 0 30 c0 23 -4 30 -20
30 -14 0 -21 9 -26 37 -9 46 2 241 15 274 9 23 10 23 16 4 4 -11 30 -85 59
-165 46 -129 50 -145 35 -148 -13 -2 -18 -11 -16 -33 l2 -29 75 0 75 0 0 30
c1 26 -3 30 -26 30 -24 0 -30 7 -47 57 -68 193 -105 289 -118 312 -14 24 -13
32 15 111 47 129 92 204 124 208 24 3 27 8 27 39 l0 36 -52 -7 c-29 -3 -63 -6
-75 -6 -19 0 -23 -6 -23 -30 0 -20 5 -30 15 -30 10 0 5 -17 -20 -68 -19 -37
-43 -92 -54 -122 l-20 -55 0 123 c-1 113 0 122 18 122 19 0 37 42 26 60 -6 10
-14 10 -107 3z"/>
<path d="M5150 1151 c0 -21 5 -31 15 -31 11 0 14 -7 11 -22 -3 -13 -14 -84
-26 -158 -12 -74 -28 -173 -35 -220 -8 -47 -20 -133 -26 -193 -12 -102 -14
-107 -36 -107 -19 0 -23 -5 -23 -30 l0 -30 75 0 75 0 0 30 c0 23 -4 30 -20 30
-24 0 -25 8 -5 155 8 61 15 111 15 113 0 1 20 2 45 2 51 0 49 5 65 -130 14
-117 13 -140 -5 -140 -8 0 -15 -6 -15 -14 0 -8 -3 -21 -6 -30 -5 -14 5 -16 76
-16 l81 0 -3 27 c-2 20 -10 29 -28 33 -15 4 -26 14 -27 25 -24 227 -62 499
-92 650 l-16 80 -47 3 c-47 3 -48 3 -48 -27z m86 -273 c7 -40 13 -86 13 -101
1 -26 -2 -28 -31 -25 -18 2 -32 8 -32 13 10 88 28 194 32 190 3 -2 11 -37 18
-77z"/>
<path d="M3070 1140 c0 -25 4 -30 25 -30 l25 0 0 -189 0 -190 26 -20 c22 -17
41 -21 110 -21 l84 0 -1 -135 -1 -135 -24 0 c-20 0 -24 -5 -24 -30 l0 -31 78
3 c75 3 77 4 77 28 0 18 -6 26 -23 28 -16 3 -22 10 -22 30 0 15 -3 170 -6 345
l-6 317 26 0 c22 0 26 4 26 30 l0 30 -75 0 c-41 0 -75 -3 -76 -7 0 -5 -2 -18
-3 -30 -2 -18 2 -23 21 -23 22 0 23 -4 23 -65 0 -36 2 -117 4 -180 l3 -115
-73 0 c-62 0 -75 3 -84 19 -6 11 -10 89 -10 180 l0 161 25 0 c21 0 25 5 25 30
l0 30 -75 0 -75 0 0 -30z"/>
</g>
</svg>
